/* XPM */
static char *b3cff4eeae064252dd672a4f3403ec7dVe5LNbvCnecXQPz4[] = {
/* columns rows colors chars-per-pixel */
"50 50 94 2 ",
"   c #1B201F",
".  c #1C201F",
"X  c #1C211F",
"o  c #1B2020",
"O  c #1B2120",
"+  c #1C2120",
"@  c #1F2422",
"#  c #1B2326",
"$  c #1C2328",
"%  c #1C2428",
"&  c #1D2529",
"*  c #1D252B",
"=  c #1D262B",
"-  c #1E262C",
";  c #212625",
":  c #222726",
">  c #222826",
",  c #232827",
"<  c #242928",
"1  c #262B2A",
"2  c #272B2B",
"3  c #272C2B",
"4  c #292D2D",
"5  c #2A2E2E",
"6  c #2C302F",
"7  c #202930",
"8  c #222B33",
"9  c #242D34",
"0  c #2C3130",
"q  c #2E3332",
"w  c #2F3433",
"e  c #263038",
"r  c #2A333B",
"t  c #2B343C",
"y  c #2C353C",
"u  c #2D363E",
"i  c #2F383F",
"p  c #303433",
"a  c #323635",
"s  c #333837",
"d  c #343837",
"f  c #353A39",
"g  c #373C3B",
"h  c #30393F",
"j  c #3A3E3D",
"k  c #3B3F3F",
"l  c #3B403F",
"z  c #3C403F",
"x  c #303940",
"c  c #333B42",
"v  c #353D43",
"b  c #363E44",
"n  c #3E4342",
"m  c #3F4443",
"M  c #384045",
"N  c #3A4247",
"B  c #3B4248",
"V  c #3C4449",
"C  c #3D444A",
"Z  c #3F464B",
"A  c #3F474B",
"S  c #404444",
"D  c #414545",
"F  c #434747",
"G  c #434847",
"H  c #40474C",
"J  c #444848",
"K  c #454A4A",
"L  c #474B4B",
"P  c #474C4B",
"I  c #41484D",
"U  c #43494E",
"Y  c #484C4C",
"T  c #484D4C",
"R  c #4A4E4E",
"E  c #4B4F4F",
"W  c #454C50",
"Q  c #464C51",
"!  c #4B4F50",
"~  c #484E52",
"^  c #484F53",
"/  c #4C5050",
"(  c #4E5353",
")  c #4A5054",
"_  c #4F5354",
"`  c #4D5357",
"'  c #4F5454",
"]  c #4F5557",
"[  c #4F5558",
"{  c #505455",
"}  c #505555",
"|  c #505659",
" . c #535758",
".. c #535859",
/* pixels */
"+ + + + + + + + + + + + + + + + + + + + + + + + + + + + + + + + + + + + + + + + + + + + + + + + + + ",
"+ + + + + + + + + + + + + + + + + + + + + + + + + + + + + + + + + + + + + + + + + + + + + + + + + + ",
"+ + + + + + + + + + + + + + + + + + + + + + + + + + + + + + + + + + + + + + + + + + + + + + + + + + ",
"+ + + + + + + + + + + + + + + + + + + + + + + + + + + + + + + + + + + + + + + + + + + + + + + + + + ",
"+ + + + + + + + + + + + + + + + + + + + + + + + + + + + + + + + + + + + + + + + + + + + + + + + + + ",
"+ + + + + + + + + + + + + + + + + + + + + + + + + + + + + + + + + + + + + + + + + + + + + + + + + + ",
"+ + + + + + + + + + + + + + + + + + + + + + + + + + + + + + + + + + + + + + + + + + + + + + + + + + ",
"+ + + + + + + + + + + + + + + + + + +   + + + + + + + + + +   + + + + + + + + + + + + + + + + + + + ",
"+ + + + + + + + + + + + + + + + + o + + + + + +     + o + + + + + + + + + + + + + + + + + + + + + + ",
"+ + + + + + + + + + + + + + +   + + + + . + + + + @ + o       + + + o + + + + + + + + + + + + + + + ",
"+ + + + + + + + + + + + + +   + + o   . : 4 6 0 a a w 0 4 : + + + + +   + + + + + + + + + + + + + + ",
"+ + + + + + + + + + + + +   +   + + 1 a g j n D D m n n j g 0 3 +     +   + + + + + + + + + + + + + ",
"+ + + + + + + + + + + +   +   + 1 0 j n J L T ! T _ ! T K S n g 0 < + . +   + + + + + + + + + + + + ",
"+ + + + + + + + + + +   +   + 4 g n D T ! { { { } { { } ( ( T D j g 4 +   +   + + + + + + + + + + + ",
"+ + + + + + + + + +   +   + 6 g D Y _ { |  .|  . . .| .. .} } ( K n g 2 + . +   + + + + + + + + + + ",
"+ + + + + + + + +   +   + 4 g D T ( { |  . .| | } | | | .. . .( ( K D g 1     +   + + + + + + + + + ",
"+ + + + + + + + X X X   < d S Y ( | ..| ] ] ) ) Q ) ) ] ( |  ...} | K D a : + + + + + + + + + + + + ",
"+ + + + + + + +   X   : p n L ( { | | | ) Q U B B V V U W ^ | | ..| _ K n 0 X   + + + + + + + + + + ",
"+ + + + + + + + X + X 3 g K { {  .} { ~ U N c u r r u v B U ~ [  ...} ! D g 1 X + + + + + + + + + + ",
"+ + + + + + + + +   X p S Y } | ..{ ~ H v r 7 % # # % 7 t v Z ^ } |  .] Y n 0 X   + X + + + + + + + ",
"+ + + + + + + + +   : g J _ {  .| ^ U c e % o   X X   o % r v U ) | ..} / D a :   + + + + + + + + + ",
"+ + + + + + + + +   2 j K { | | ` Q B r #   + + + +   + o = u B Q } ..| } J g 2   + + + + + + + + + ",
"+ + + + + + + + + + 0 m T {  .| ) U c 7 o o o X + o o o o o 7 v H }  . .} Y j 5   + + + + + + + + + ",
"+ + + + + + + + + + 0 n ! }  .| ) C u $   o X o + + + o + o % x C ] }  .} Y n q +   + + + + + + + + ",
"+ + + + + + + +   + a D ~ } ..| Q V r # X O   @ + + o o o   % i C ^ | ..{ ^ n q +   + + + + + + + + ",
"+ + + + + + + + . : 0 D ! }  .} Q V r # X o   o + + o o o   % r C ^ { ..{ ! n q +   + + + + + + + + ",
"+ + + + + + + + . + 0 n ! {  .| ) C i %   X   o o o @ o o o = h Z ^ | ..{ T n 5 + + + + + + + + + + ",
"+ + + + + + + + + + 4 n T } ..| ' U c 9   X o o o o         9 M L { | ..{ Y b q . + + + + + + + + + ",
"+ + + + + + + + + . 4 j K ( ..| ' Q B t % o   o o o @ o   - i V ~ _ | | ( K j 1 o + + + + + + + + + ",
"+ + + + + + + + + . : g D ( } ..] ) U v r % o o       o - r M U { | | | T D a :   + + + + + + + + + ",
"+ + + + + + + + + X + 0 m T ( [ ..[ ^ A M t 9 = % % % 9 i M A ) | | { { Y n 4 +   +   + + + + + + + ",
"+ + + + + + + + + + + 1 g K ' ] ..[ [ ^ H V c i t i i c V U ) [ |  .{ T D g 1   + + + + + + + + + + ",
"+ + + + + + + + + +   + 0 n K ( {  .| | { W H Z C Z Z W ~ ^ | | ..{ ( K j 0 + o + . + + + + + + + + ",
"+ + + + + + + + + + +   4 a D K ( { .. .[ _ { } ^ ^ ^ ^ } | | ..} { L D a : + . X + + + + + + + + + ",
"+ + + + + + + + + . + o + 1 g n L ( { | [ ....| | | | | .... .} ( L S d 1   + +   + + + + + + + + + ",
"+ + + + + + + + + + o + + + 2 g n K ( { } | | ........| } { } / K n d 1 +   +   + + + + + + + + + + ",
"+ + + + + + + + + + +   + . + 1 d n D K ~ _ { } } { } } { R K S j a 1     +   + + + + + + + + + + + ",
"+ + + + + + + + + + + + . + . + , 0 g n D K T T { T Y J J D S d 0 : o o +   + + + + + + + + + + + + ",
"+ + + + + + + + + + + + +   + o   X 2 0 g g j m n D b S g a q : + . + +   + + + + + + + + + + + + + ",
"+ + + + + + + + + + + + + +   + . . X X : 1 4 0 0 p 5 5 3 < X . . + + o + + + + + + + + + + + + + + ",
"+ + + + + + + + + + + + + + +   + + +         + + + +         + + +   + + + + + + + + + + + + + + + ",
"+ + + + + + + + + + + + + + + + + + + + + + +   +     + + + + +   + + + + + + + + + + + + + + + + + ",
"+ + + + + + + + + + + + + + + + + + + + + + + + + + + + + +   + + + + + + + + + + + + + + + + + + + ",
"+ + + + + + + + + + + + + + + + + + + + + + + + + + + + + + + + + + + + + + + + + + + + + + + + + + ",
"+ + + + + + + + + + + + + + + + + + + + + + + + + + + + + + + + + + + + + + + + + + + + + + + + + + ",
"+ + + + + + + + + + + + + + + + + + + + + + + + + + + + + + + + + + + + + + + + + + + + + + + + + + ",
"+ + + + + + + + + + + + + + + + + + + + + + + + + + + + + + + + + + + + + + + + + + + + + + + + + + ",
"+ + + + + + + + + + + + + + + + + + + + + + + + + + + + + + + + + + + + + + + + + + + + + + + + + + ",
"+ + + + + + + + + + + + + + + + + + + + + + + + + + + + + + + + + + + + + + + + + + + + + + + + + + ",
"+ + + + + + + + + + + + + + + + + + + + + + + + + + + + + + + + + + + + + + + + + + + + + + + + + + "
};
