/* XPM */
static char *_b05baf056714d0cb42970a9caf11c4d0KQNSr69fgomchaM[] = {
/* columns rows colors chars-per-pixel */
"50 50 112 2 ",
"   c #0F1513",
".  c #121716",
"X  c #131917",
"o  c #141918",
"O  c #161B1A",
"+  c #171B1B",
"@  c #171C1B",
"#  c #171D1C",
"$  c #1A1F1E",
"%  c #1B1F1F",
"&  c #1B201F",
"*  c #1C201F",
"=  c #1B2120",
"-  c #1C2120",
";  c #1E2423",
":  c #1F2423",
">  c #202524",
",  c #222726",
"<  c #232827",
"1  c #242928",
"2  c #272C2B",
"3  c #292E2D",
"4  c #2B2F2F",
"5  c #2F3333",
"6  c #2F3433",
"7  c #313534",
"8  c #313635",
"9  c #333837",
"0  c #363B3A",
"q  c #373B3A",
"w  c #383C3B",
"e  c #383D3C",
"r  c #3B403F",
"t  c #3C4040",
"y  c #3F4343",
"u  c #424746",
"i  c #444847",
"p  c #444948",
"a  c #474B4A",
"s  c #474C4B",
"d  c #474C4C",
"f  c #4B4F4E",
"g  c #4B504F",
"h  c #4E5252",
"j  c #4F5453",
"k  c #505453",
"l  c #525756",
"z  c #535756",
"x  c #575B5A",
"c  c #575C5B",
"v  c #595E5D",
"b  c #5C605F",
"n  c #5F6363",
"m  c #5F6463",
"M  c #616564",
"N  c #656968",
"B  c #676B6B",
"V  c #686C6C",
"C  c #686D6C",
"Z  c #6A6F6E",
"A  c #6C7070",
"S  c #6D7171",
"D  c #6F7473",
"F  c #727776",
"G  c #737776",
"H  c #757A79",
"J  c #777C7B",
"K  c #787D7C",
"L  c #7A7F7E",
"P  c #7B7F7E",
"I  c #7C8180",
"U  c #7D8181",
"Y  c #7E8382",
"T  c #808584",
"R  c #828786",
"E  c #848888",
"W  c #848988",
"Q  c #8A8E8E",
"!  c #8C908F",
"~  c #8C9090",
"^  c #8D9090",
"/  c #909393",
"(  c #939796",
")  c #959998",
"_  c #9A9E9E",
"`  c #9FA2A2",
"'  c #A0A4A4",
"]  c #A4A8A7",
"[  c #A6AAAA",
"{  c #A8ACAC",
"}  c #ACB0AF",
"|  c #ADB0B0",
" . c #B1B5B5",
".. c #B7BABA",
"X. c #B8BCBB",
"o. c #BABDBD",
"O. c #BCC0C0",
"+. c #BFC2C2",
"@. c #C1C4C5",
"#. c #C7CACB",
"$. c #CACDCD",
"%. c #CED1D2",
"&. c #D1D4D4",
"*. c #D6D9D9",
"=. c #D8DBDB",
"-. c #DBDFDF",
";. c #E3E6E6",
":. c #E8EBEB",
">. c #EBEEEE",
",. c #EDF0F0",
"<. c #FBFEFE",
"1. c white",
/* pixels */
"- - - - - - - - - - - - - - - - - - - - - - - - - - - - - - - - - - - - - - - - - - - - - - - - - - ",
"- - - - - - - - - - - - - - - - - - - - - - - - - - - - - - - - - - - - - - - - - - - - - - - - - - ",
"- - - - - - - - - - - - - - - - - - - - - - - - - - - - - - - - - - - - - - - - - - - - - - - - - - ",
"- - - - - - - - - - - - - - - - - - - - - - - - - - - - - - - - - - - - - - - - - - - - - - - - - - ",
"- - - - - - - - - - - - - - - - - - - - - - - $ - - $ - - - - - - - - - - - - - - - - - - - - - - - ",
"- - - - - - - - - - - - - - - - - - - - - - - - - - - - - - - - - - - - - - - - - - - - - - - - - - ",
"- - - - - - - - - - - - - - - - - - - - - - - - $ - - - - - - - - - - - - - - - - - - - - - - - - - ",
"- - - - - - - - - - - - - - - - - - - - - $ - $ - , $ - - - - - - - - - - - - - - - - - - - - - - - ",
"- - - - - - - - - - - - - - - - - - - - - - $ $ 2 q @ - - - - - - - - - - - - - - - - - - - - - - - ",
"- - - - - - - - - - - - - - - - - - - - - - - $ 5 f $ - - - - - - - - - - - - - - - - - - - - - - - ",
"- - - - - - - - - - - & - - $ - - - - - - - - O q b @ - - - - - - - - - - - - $ - - - - - - - - - - ",
"- - - - - - - - - - & - $ - - = - - - - - - - O t C @ = - - - - - $ - - - $ - - & - - - - - - - - - ",
"- - - - - - - - - - - $ , : $ - $ - - - - - - O u H $ - - - - - $ - - $ & , - & - - - - - - - - - - ",
"- - - - - - - - - - - & : s 3 O - - $ - - - - O f Y O - - - - & - - = - q 3 $ - - - - - - - - - - - ",
"- - - - - - - - - - & - $ 3 C 8 @ - - - - - = O g Q O - - - & - - $ - d q $ - - & - - - - - - - - - ",
"- - - - - - - - - - - & - O 8 L w + - - $ = = O j ) $ - - & - - $ , m a $ = - & - - - - - - - - - - ",
"- - - - - - - - - - - - - - # e Q t + - - - - O x _ $ - - - - * 1 P b $ $ = & - - - - - - - - - - - ",
"- - - - - - - - - - - - * - - O u _ s @ - - - O v ' - - - - $ 3 ^ C & $ - $ - - - - - - - - - - - - ",
"- - - - - - - - - - - - - % - - O f } k O - & O n { - - - % 4 ' H @ - - - & - - - - - - - - - - - - ",
"- - - - - - - - - - - - - - % - - O l O.x $ = . B { - - % 8 { T & - - & * - - - - - - - - - - - - - ",
"- - - - - - - - - - - - - - - % - - O v $.n $ O D  ., $ q o.! * - - - & - - - - - - - - - - - - - - ",
"- - - - - - - $ - - - - - - - - - - - $ M =.C X L ..- w #._ : * - - - - - - - - - - & - - - - - - - ",
"- - - - - - - - - $ - - = - - $ - - - - $ A :.A Y o.s &.[ , & * & & * & - - & - - - - & - - - - - - ",
"- - - - - $ - $ $ $ # $ O O O O O X O X .   A ;.&.*.*.] * X X @ O X @ O @ @ @ @ $ $ $ - & & - - - - ",
"- - - - - - - - 1 5 8 e t a f l n M C G Y W Q *.1.<.,.' E Y H A B n l h s u w 0 5 1 : & - - - - - - ",
"- - - - - - $ , 5 r g v C H R ~ ) ' [ |  .o.O.*.<.1.>.@.o...{ { ' _ Q W P C n j u 9 1 & - - - - - - ",
"- - - - - $ - $ & $ $ & $ O $ $ $ $ & - : - f &.>.>.,.L - - , - $ @ @ $ @ & + & $ $ & - & & - - - - ",
"- - - - - - - - - & $ - - - & = * & - - # r &.[ ( O.Y ;.C $ - - - - - - - - * * - & - - - - - - - - ",
"- - - - - - $ - - - - - - - - = - - - & q #.[ = P .., A -.M $ * - - - - - - - - - - - & - - - - - - ",
"- - - - - - - - - - - - - - - & - - $ 6 .._ , . F  ., + C &.c + - = & - - - - - - - - - - - - - - - ",
"- - - - - - - - - - - - - - & & = & 5 } ^ : = O C | , $ $ b O.l O - - & - - - - - - - - - - - - - - ",
"- - - - - - - - - - - - - & & & & 3 ` R - = - @ M { - * - O l | a O - - & - - - - - - - - - - - - - ",
"- - - - - - - - - - - - $ - - $ < / L $ * - - O v ' $ % - - $ f ' e $ - - & - - - - - - - - - - - - ",
"- - - - - - - - - - - - - - $ , J C @ - - - $ X x ' $ * - - $ O i ( e + - - & - - - - - - - - - - - ",
"- - - - - - - - - - - $ - $ - M v $ - - - - - O l _ $ * - $ - - @ t Y 8 @ - & * - - - - - - - - - - ",
"- - - - - - - - - - - - % = f f $ - - - $ - - O h ^ @ - - - - - - + 8 M 3 $ - - & - - - - - - - - - ",
"- - - - - - - - - - - - $ e t $ - - - & - - $ O f W O = = - - $ = - $ 3 u , & - - - - - - - - - - - ",
"- - - - - - - - - - - $ , 3 $ - - % * - - - - O a J O , - - - - & - = $ , 1 & - - - - - - - - - - - ",
"- - - - - - - - - - - $ - $ - - $ - - - - - - O e A $ - - - - - - & - - & & - & - - - - - - - - - - ",
"- - - - - - - - - - - - $ - - - - - - - - - - O e M O - - - - - - - & - = - & - & - - - - - - - - - ",
"- - - - - - - - - - - - - - $ - - - - - - - - $ 8 l $ - - - - - - - - & - - - & - - - - - - - - - - ",
"- - - - - - - - - - - - - - - - - - - - - - - $ 3 e $ - - - - - - - - - - - - - - - - - - - - - - - ",
"- - - - - - - - - - - - - - - - - - - - - - - $ , 3 $ - - - - - - - - - - - - - - - - - - - - - - - ",
"- - - - - - - - - - - - - - - - - - - - - - $ - $ $ - $ - - - - - - - - - - - - - - - - - - - - - - ",
"- - - - - - - - - - - - - - - - - - - - - - - $ $ - * - - - - - - - - - - - - - - - - - - - - - - - ",
"- - - - - - - - - - - - - - - - - - - - - - - = - - % - - - - - - - - - - - - - - - - - - - - - - - ",
"- - - - - - - - - - - - - - - - - - - - - - - - - - - - - - - - - - - - - - - - - - - - - - - - - - ",
"- - - - - - - - - - - - - - - - - - - - - - - - - - - - - - - - - - - - - - - - - - - - - - - - - - ",
"- - - - - - - - - - - - - - - - - - - - - - - - - - - - - - - - - - - - - - - - - - - - - - - - - - ",
"- - - - - - - - - - - - - - - - - - - - - - - - - - - - - - - - - - - - - - - - - - - - - - - - - - "
};
