/* XPM */
static char *result[] = {
/* columns rows colors chars-per-pixel */
"50 50 197 2 ",
"   c #12120E",
".  c #131715",
"X  c #161916",
"o  c #1A1A17",
"O  c #161B1A",
"+  c #1A1E1C",
"@  c #211F19",
"#  c #1B201F",
"$  c #23211D",
"%  c #2A231D",
"&  c #1C2120",
"*  c #232523",
"=  c #282926",
"-  c #242929",
";  c #322E29",
":  c #2C302F",
">  c #36332E",
",  c #2C2F30",
"<  c #2D3637",
"1  c #313535",
"2  c #383938",
"3  c #4F1615",
"4  c #6F171B",
"5  c #661D24",
"6  c #423D37",
"7  c #5A3E35",
"8  c #6C282A",
"9  c #742729",
"0  c #65302F",
"q  c #6D3131",
"w  c #44413C",
"e  c #383E43",
"r  c #07505E",
"t  c #364144",
"y  c #3C4F58",
"u  c #3E525A",
"i  c #3A5B6D",
"p  c #3B5D70",
"a  c #474847",
"s  c #524E48",
"d  c #4F514E",
"f  c #54524C",
"g  c #59544E",
"h  c #4A555B",
"j  c #595B55",
"k  c #5C5E5B",
"l  c #655B53",
"z  c #5B605D",
"x  c #63625D",
"c  c #69675D",
"v  c #485B64",
"b  c #515E62",
"n  c #5D6465",
"m  c #596A73",
"M  c #636562",
"N  c #696964",
"B  c #6A6B65",
"V  c #716D67",
"C  c #6E736D",
"Z  c #71746D",
"A  c #767974",
"S  c #7C7E7A",
"D  c #8B1C23",
"F  c #951D26",
"G  c #85242D",
"H  c #99252D",
"J  c #AE242F",
"K  c #A32833",
"L  c #AC2B35",
"P  c #B42C37",
"I  c #B42E39",
"U  c #B92C38",
"Y  c #B8303B",
"T  c #826A3C",
"R  c #935053",
"E  c #9A7F7D",
"W  c #74847E",
"Q  c #7D817C",
"!  c #84867D",
"~  c #FFCB5D",
"^  c #3A708F",
"/  c #46758F",
"(  c #617B8A",
")  c #7D8582",
"_  c #7F898E",
"`  c #668799",
"'  c #4285AB",
"]  c #458FB9",
"[  c #6B8FA2",
"{  c #779BAD",
"}  c #749DB2",
"|  c #7AA3B6",
" . c #7AA5BC",
".. c #7AA9C6",
"X. c #838582",
"o. c #818B85",
"O. c #898C87",
"+. c #8C8D89",
"@. c #86928E",
"#. c #8F918D",
"$. c #91918D",
"%. c #9C9589",
"&. c #889898",
"*. c #959694",
"=. c #969996",
"-. c #949A96",
";. c #949B9A",
":. c #9D9E9C",
">. c #A48381",
",. c #A49B94",
"<. c #8BA29D",
"1. c #9AA39E",
"2. c #A8A59B",
"3. c #B7B093",
"4. c #899BA5",
"5. c #97A7A6",
"6. c #9BA2A2",
"7. c #9CAAA6",
"8. c #8DA6B3",
"9. c #8BA7B6",
"0. c #9BB6B0",
"q. c #A4A5A3",
"w. c #A5A8A7",
"e. c #AAABA5",
"r. c #ABADAA",
"t. c #B4AAA3",
"y. c #A2B3AF",
"u. c #ADB0AB",
"i. c #B3B3AC",
"p. c #BCB5AD",
"a. c #A3B6B1",
"s. c #AAB6B6",
"d. c #B4B5B2",
"f. c #B3BAB5",
"g. c #BABBB5",
"h. c #B2BDBA",
"j. c #BBBDBB",
"k. c #C5BAB1",
"l. c #B3C0BD",
"z. c #BBC1BC",
"x. c #CEC494",
"c. c #C2C3BD",
"v. c #8DB1C4",
"b. c #89B4CA",
"n. c #8EB7CD",
"m. c #8BBAD3",
"M. c #8EC1DC",
"N. c #91C2DD",
"B. c #B9C7C4",
"V. c #B6D1CD",
"C. c #BED7D3",
"Z. c #BFD8D5",
"A. c #8DC4E6",
"S. c #94C9E6",
"D. c #95CBE8",
"F. c #99CEEB",
"G. c #9CD1EE",
"H. c #9DD4F2",
"J. c #A0D8F7",
"K. c #A3DDFC",
"L. c #C4C5C3",
"P. c #C5CAC4",
"I. c #CBCCC5",
"U. c #C5CBC9",
"Y. c #CBCEC9",
"T. c #CED1CC",
"R. c #D1D4CE",
"E. c #C1DAD7",
"W. c #CBD9D5",
"Q. c #C2DCD9",
"!. c #D3D6D1",
"~. c #D5D9D4",
"^. c #D9DCD6",
"/. c #D4DBD9",
"(. c #DBDED9",
"). c #C6E1DE",
"_. c #CEE1DE",
"`. c #DDE1DB",
"'. c #E1E4DE",
"]. c #C9E4E2",
"[. c #CBE6E4",
"{. c #CCE9E6",
"}. c #D4E7E5",
"|. c #D2ECEA",
" X c #DAEEEC",
".X c #D4F1EF",
"XX c #D5F4F2",
"oX c #DDF3F1",
"OX c #E2E6E0",
"+X c #E7EAE4",
"@X c #E4EEED",
"#X c #E6F0EF",
"$X c #E4F4F3",
"%X c #EAF5F5",
"&X c #E7FAF9",
"*X c #F3FEFD",
"=X c #FEFFFF",
/* pixels */
"& & & & & & & & & & & & & & & & & # & & # # & & & & & & & & - y # # & & & & & & & & & & & & & & & & ",
"& & # & & & & & & & & & & # # # & & & & & # & & & & & & & & - a # # & # & & # & & & & & & # & & & & ",
"& & & & & # & & & & & & & # & # # # & # . . . O O . . O O , e e # & & & & & & & & & & & & & & & & & ",
"& & & & & & & & & & & # # & # # # # # - d C *.*.O.B a a & - < r # & & & & & & & & # & & & & & & & # ",
"& & & & & & & & & & & # # # $ Z O.:.$.X.w.r.T.+X+X+XT.d.:.n 1 e & & & & & & & & & & & & & & & & & & ",
"& & & & & & & & & & & & # o e x.3.0.n.m.S.v.q.L.^.^.'.d.w.X.b a O & # & & & & & & & & & & & & & & & ",
"& # & & & # & & & & # # & O a 3.<.A.H.G.H.H.v.e.L.'.(.Y.j.=.X.X.a . & & & & & & & & & & & & & & & & ",
"& & & & & & & & & & & # & O t m.H.G.G.G.H.H.G.9.t.T.`.`.+X'.j.j.j.e O & # & & & & & & # & & # & & & ",
"& & & & & & & & & & + & + & } H.G.G.G.G.G.G.J.S.5.d.(.^.j.!.`.d.U.r.- O # # & & # & & & & # & & & & ",
"& & & & & & # & & & & & . ` K.G.G.G.G.G.G.G.F.J.m.:.L.R.t.L.'.!.r.!.A . & & & & & & & & & & & & & & ",
"& # & & & & & & & & & O t F.G.G.G.G.G.G.G.G.G.G.J.v.t.R.!.(.(.'.j.j.j.1 O & & & & & & & & & & & & # ",
"& & & & & & & & & & & X ` K.F.G.G.G.G.G.G.G.G.G.H.A.6.d.'.L.p.^./.r.!.n . & & & & & & & & & & & & & ",
"& & & & & & & & & & + & m.H.F.H.G.G.G.G.G.G.G.G.F.H.v.w.!.Y.p.!.`.d.U.*.O & & & & & & & & & & & & & ",
"& & # & & & # & & & O t H.H.G.F.G.G.G.G.G.H.G.G.G.J.S.5.p.'.(.(.OXc.j.d.* # & & & & & & & # & & & & ",
"& & & & & & & & # & X u H.G.G.G.H.G.H.G.G.G.G.G.G.G.H.v.q.R.^.i.Y.Y.f.j.2 O & & & & & & & & & & & & ",
"& & & & & & & & # & X u H.H.G.H.G.G.G.G.G.G.G.G.G.F.H.b.=.c.^.p.Y.T.d.L.a O & & & & # & & & & & & & ",
"& & & & & & & & # & . u H.G.G.G.G.G.J.F.G.G.G.G.G.G.N.| &.r.~.`.'.Y.f.L.e O & & & & & & & & & & & & ",
"& & & & & & & & # & O t F.H.F.G.G.G.G.G.G.G.G.H.G.J...v.} q.Y.`.(.P.g.g.= O & & & & & & & & & & & & ",
"& # & & & & & & & & O - m.H.G.G.G.G.G.G.G.H.F.F.F.b.[ n..._ d.(.'.j.L.q.M , O * & & & & & # & & & & ",
"& & & & & & & & # & # . ` K.F.G.G.G.G.G.H.m.v.{ ( [ } } 4.=.j.`.^.d.L.#.d.q.1 O & & & & & & & & & & ",
"& & & & & & & & & # & O t G.H.G.G.G.G.G.G.} } }  .S.9.&.e.Y.'.`.T.f.j.M Q R.A + & & & & & & & & & # ",
"& & & & & & & & & & & & + ` K.G.G.G.G.G.J.G.M.M.b.5.6.g.!.(.^.'.j.q.q.L.1 u.d.- # & & & & & & & & & ",
"& # & & & & & & & & & & O 2 v.F.G.F.D.F.N.v.8.;.q.i.t.2.R.OX'.g.*.2.k.B.e +.j.: O & & & & & & & & & ",
"& & & & & & & & & & & & O k *.&.8.8.4.4.;.q.i.I.~.p.k.e.r.P.i.r.R.c.%.m h e.r.- # & & & & # & & & & ",
"& & & & & & & & & & & & X X.`.i.%.+.1.i.c.I.R.R.L.%.q.R.g.$.u.T.L.B.r.n 6.P.X.O & & & & & & & & & & ",
"& & # & & & & & & & & & # w 1.R.'.`.z.,.u.f.l.f.z.P.U.z.U.~.c.e.e.h.r.j.P.2.1 O & # & & # & & & & & ",
"& & & & & # & & & & & & & % ) Q B :.q.2.t.k.x.p.t.,.E R R >.u.j.g.i.g.f.S 1 O & & & & & & & & & & & ",
"& & & & & & & & & & & & # 6 _.}.1.w 7.W 4 L K K 5 5 F J U 4 W 7.x y.l.h.> + & # & & & & & & & & & & ",
"& & & & & & & & & # & & O Z oX X}.x ).<.9 U P 9 ! T q L U 9 <.).g ].oX$XA o & # & & & & & # & & & & ",
"& & & & & & & & # # & & $ w.oXoX1.C |.0.0 U L w ~ ~ 7 L U 0 0.|.Z 7.oXoX7.$ & # & & & & & & & & # & ",
"& # & & & # & & # # # # > W.|.oXX.@.|.V.w P P 8 T T q P L 7 V.}.@.X.oX|.W.> # # & & & & & & & & & & ",
"& & & & & & & & # # # o 6 E.oX$XC a.).).c D P L D D L U G M ].{.y.C &XXXT.6 # & & # & & & & & & & & ",
"& & & & & & & & & & # # t h A A f Z.].|.<.8 U L P P L U 8 <.E.B.C.s A Z b t # # # # & & & # & & & & ",
"& & & & & & & # & & # $ h ] ' / w Z C W V.g K Y I I Y H k a.j h 7.z ^ ' ] y $ # # # & # & & & & & & ",
"# & & & & & & & & & & # s n v v b ( i i ! A 3 F D D H 3 ) C [ } j k v v M s # # # # # # & & & & & # ",
"& & & & & & & & & & & X Q  XW.e.m { / / l :.@.+.+.+.O.O.;.g [ ..g g y.W. XQ o & # # # # & & & & & & ",
"& & # & & & # & # # # . B  X&XB.m } / / c -.#.#.$.$.$.$.-.l [  .g g B.&X.XB X # & & & & & # & & & & ",
"& & & & & & & & & # # # f ).1.f.n ( p p c @.) ) @.@.) Q @.g } ..w f l.1._.s # # & & & & & & & & & & ",
"& & & & & & & & & & # # > B.B l.f C C Q Q.|.{.|.7.7.|.{.XXy.h b 1.Q s.N B.; # # & & & # & & & & & & ",
"& & & & & & & & & # # # # x f f B ).].[.Q.C.).y.$ % y.).C.).y.1.).c f f x # # # # & & & & & & & & & ",
"& & & & & & & & & & # # & # # . f E.Q.Z.Q.Z.{.-.$ $ -.{.Z.Q.].{.Q.s o # # & # # & & & & & & & & & & ",
"& & & & & & & & & & & & # & # # w E.Q.Q.Q.Z.{.X.O O ) {.Z.Q.Z.E.C.w # & # # & & & & & & & & # & & & ",
"& & & & & & & & & & & # # # # # > Q.{.].].]..XW O o Q .X].].].{.E.> # # # # # & & # & & & & & & & # ",
"& & & # & & & # & # & & # # # # ; o.7.a.0.y.5.g + $ g 5.y.0.y.7.o.; # & # & & & & & & & & & & & & & ",
"& & & & & & & & & & & & # & & # * V ! S ! S X.g + + g ! S ! S X.Z % # # & & & & & & & & & & & & & & ",
"# & & & & & & & & & & & # # & & o q.=X%X%X%X=XO.X X +.=X%X&X%X=Xw.o & # & & & # & & # & & & # & & & ",
"& & & & & & & & & & & & # # & &   N %X@X@X%Xj.f # $ g j.$X@X#X%Xc   & # # # & & & & & & & & & & & & ",
"& & & & & & & # & & & # # # # - g u.%X@X*Xq.x C $ # C x 2.*X@X%Xs.f - & & & & & & & & & & & & & & & ",
"& # & & & & & & & & & & & & # > _.*X$X%X#Xx C.-.# @ 1.C.x #X%X$X*X^.> # # # # & & & & & & & & # & & ",
"& & & & & & & & # & & & & & # = g N N N c w z > # # ; k w x N N N f * # # # # & & & & & & & & & & & "
};
