/* XPM */
static char *a4aa1c961196431fddbda3a7ab8ae85as4FWTMTSfu4JFpHr[] = {
/* columns rows colors chars-per-pixel */
"50 50 165 2 ",
"   c #0D1412",
".  c #121716",
"X  c #121A17",
"o  c #161D1A",
"O  c #191E1D",
"+  c #1B201F",
"@  c #1C2120",
"#  c #212425",
"$  c #252529",
"%  c #29252F",
"&  c #262B2A",
"*  c #292A2D",
"=  c #2E2B34",
"-  c #302C35",
";  c #362B3C",
":  c #38293E",
">  c #2D3334",
",  c #323535",
"<  c #32343A",
"1  c #363A3A",
"2  c #3A393C",
"3  c #3C2C43",
"4  c #3E3645",
"5  c #462F4D",
"6  c #46344B",
"7  c #443949",
"8  c #4D3656",
"9  c #413B50",
"0  c #4B3C52",
"q  c #52345B",
"w  c #562F61",
"e  c #5A2F65",
"r  c #5B3466",
"t  c #5C3964",
"y  c #5E3569",
"u  c #5F3869",
"i  c #61376C",
"p  c #623A6B",
"a  c #673E70",
"s  c #454948",
"d  c #534355",
"f  c #5C4A5D",
"g  c #515554",
"h  c #555958",
"j  c #5B595C",
"k  c #5A4B70",
"l  c #614B60",
"z  c #665165",
"x  c #655A66",
"c  c #6D4474",
"v  c #724977",
"b  c #764B7C",
"n  c #784E7D",
"m  c #785C78",
"M  c #776B77",
"N  c #7D607A",
"B  c #787B7A",
"V  c #D17D68",
"C  c #C67E72",
"Z  c #F48A29",
"A  c #FF9622",
"S  c #E78034",
"D  c #E7843A",
"F  c #CC857A",
"G  c #D78D72",
"H  c #D2917C",
"J  c #F5AD67",
"K  c #FCB76D",
"L  c #E5A378",
"P  c #7A5C8A",
"I  c #835986",
"U  c #855A87",
"Y  c #865A88",
"T  c #925D8A",
"R  c #8D678D",
"E  c #906D8D",
"W  c #8D6794",
"Q  c #916591",
"!  c #956A95",
"~  c #9B6F99",
"^  c #9A7296",
"/  c #9D719B",
"(  c #B2758B",
")  c #A8709D",
"_  c #A7789E",
"`  c #A575A3",
"'  c #AB77A4",
"]  c #A679A2",
"[  c #AB7DA6",
"{  c #A67AAB",
"}  c #AC7FA9",
"|  c #B37BA5",
" . c #12F7F9",
".. c #2DFFFE",
"X. c #75DEE6",
"o. c #808281",
"O. c #8E8F8F",
"+. c #958E95",
"@. c #8F9291",
"#. c #8E95B7",
"$. c #8396B8",
"%. c #8E98B9",
"&. c #9592B6",
"*. c #9798B8",
"=. c #AC82A6",
"-. c #A789A7",
";. c #AE80A9",
":. c #B183AC",
">. c #B48AAF",
",. c #AE9EAD",
"<. c #A980B0",
"1. c #B685B1",
"2. c #B58DB1",
"3. c #BA94B5",
"4. c #B996B5",
"5. c #BC98B7",
"6. c #BD9BBA",
"7. c #9FA1A0",
"8. c #A3A5A3",
"9. c #ACAEAD",
"0. c #AFB0AF",
"q. c #B3B4B3",
"w. c #B7B9B7",
"e. c #B9B7B9",
"r. c #BCBBBB",
"t. c #C2888A",
"y. c #C293A1",
"u. c #C498B7",
"i. c #C09EBC",
"p. c #D0ABAE",
"a. c #C0A2BD",
"s. c #BFC0BE",
"d. c #F0C59C",
"f. c #AEBCCE",
"g. c #C8A5C4",
"h. c #CFAECB",
"j. c #C8B1C7",
"k. c #C3BFC2",
"l. c #CFBACD",
"z. c #A1CCD9",
"x. c #C4C3C3",
"c. c #C8C4C7",
"v. c #C7C8C7",
"b. c #C9C9C7",
"n. c #CCCCCB",
"m. c #D0C7CE",
"M. c #D0CCCF",
"N. c #CFD0CF",
"B. c #D3C5D1",
"V. c #D4CDD2",
"C. c #DDC4DA",
"Z. c #DDCBDC",
"A. c #D3D3D3",
"S. c #D8D9D6",
"D. c #DCD6DB",
"F. c #DBDBDB",
"G. c #E1D3DF",
"H. c #E1DBDE",
"J. c #E2CDE1",
"K. c #E2DEE0",
"L. c #E4E5E3",
"P. c #E8E6E6",
"I. c #E7E9E5",
"U. c #E8ECE6",
"Y. c #ECECEC",
/* pixels */
"@ @ @ @ @ @ @ @ @ @ @ @ @ @ @ @ @ @ @ @ @ @ @ @ @ @ @ @ @ @ @ @ @ @ @ @ @ @ @ @ @ @ @ @ @ @ @ @ @ @ ",
"@ @ @ @ @ @ @ @ @ @ @ @ @ @ @ @ @ @ @ @ @ @ @ @ @ @ @ @ @ @ @ @ @ @ @ @ @ @ @ @ @ @ @ @ @ @ @ + @ @ ",
"@ @ @ @ @ @ @ + @ @ @ @ @ @ @ @ @ @ @ @ @ @ @ @ @ @ @ @ @ @ @ @ @ @ @ @ @ @ @ + @ @ @ @ @ @ @ @ @ @ ",
"@ @ @ @ @ @ @ @ @ @ @ @ @ @ @ @ @ @ @ @ @ @ @ @ @ @ @ @ @ @ @ @ @ @ @ @ @ @ @ @ @ @ @ @ @ @ @ @ @ @ ",
"@ @ @ @ @ @ @ @ @ @ @ @ @ @ @ @ @ @ @ @ @ @ @ @ @ @ @ @ @ @ @ + @ @ @ @ @ @ @ @ @ @ @ @ @ @ @ @ @ @ ",
"@ @ @ @ @ @ @ @ @ @ @ @ @ @ @ @ @ @ @ @ @ @ @ @ @ @ @ @ @ @ @ @ @ @ @ @ @ @ @ @ @ @ + @ @ @ @ @ @ @ ",
"+ @ @ @ @ @ @ @ @ @ @ @ @ @ @ @ @ @ @ @ @ @ @ @ @ @ @ @ @ @ @ @ @ @ @ @ @ @ @ @ @ @ @ @ @ @ @ @ @ @ ",
"@ @ @ @ @ @ @ @ @ @ @ @ @ @ @ @ @ @ @ O @ @ @ @ @ @ @ @ @ O @ @ @ @ @ @ @ @ @ @ @ @ @ @ @ @ @ @ @ @ ",
"@ @ @ @ @ @ @ @ @ @ @ @ @ @ @ @ @ @ @ @ @ + o + O O O @ @ @ @ @ @ @ @ @ @ @ @ @ @ @ @ @ @ @ @ @ @ @ ",
"@ @ @ @ @ @ @ @ + @ @ @ @ @ @ @ @ @ @ o X @ & * , > & @ X X @ @ @ @ @ @ @ @ @ @ @ @ @ @ @ @ @ @ @ @ ",
"@ @ @ @ @ @ @ @ @ @ @ @ @ @ @ @ @ o o s @.x.H.H.K.S.A.q.P s O o @ @ + @ @ @ @ @ @ @ @ @ @ @ @ @ @ @ ",
"@ @ @ @ @ @ @ @ @ @ @ @ @ O @ @ o 2 7.L.Y.U.L.L.K.L.L.L.U.N.O.1 X @ @ @ @ @ @ @ @ @ @ @ @ @ @ @ @ @ ",
"@ @ @ + @ @ @ @ @ @ @ @ @ @ @ o j b.L.S.S.A.S.S.A.A.N.N.N.N.S.w.g X @ @ @ @ @ @ @ @ @ @ @ @ @ @ @ @ ",
"@ @ @ @ @ @ @ @ @ @ @ @ @ @ X h b.A.n.n.n.b.b.b.b.v.v.x.v.v.x.s.r.g X @ + @ @ @ @ @ @ @ @ @ @ @ @ @ ",
"@ @ @ @ @ @ @ @ @ @ @ + @ o 1 q.b.x.x.s.k.k.z.s.s.s.s.w.s.s.s.w.e.9., o @ @ @ @ @ @ @ @ @ @ @ @ @ + ",
"@ @ @ @ @ @ @ @ + @ @ @ # O o.r.w.w.w.q.q.q.q.0.0.0.0.0.0.0.0.0.q.r.B o @ @ + + @ @ @ @ @ @ @ @ @ @ ",
"@ @ @ + @ @ + + @ @ + O   & 9.q.q.e.a.x.x.c.c.c.c.c.c.x.p.z.p.q.q.q.8.+ o @ @ @ @ @ O @ @ @ @ @ @ @ ",
"+ @ @ + @ + @ + o . O , j +.D.D.H.H.K.I.L.U.P.P.I.I.I.I.U.L.H.F.V.m.c.x = @ . O @ # @ @ @ @ @ @ @ @ ",
"@ @ + + # + X o 7 M ,.l.h.l.P.L.I.L.I.L.L.L.L.L.L.L.L.L.L.L.L.L.L.L.D.u.[ E l 2 @ X O @ @ + + + @ @ ",
"+ @ + + X $ f -.C.C.g.>.` g.I.L.L.L.L.I.L.L.L.L.L.L.L.L.U.L.L.L.L.P.P.2.[ :.1.;.E l * o @ @ @ + @ + ",
"@ + X & l 3.J.C.5.] ] [ [ 3.L.I.L.L.K.S.V.M.n.b.b.b.n.M.A.F.L.L.L.U.V.} } [ [ } :.1._ z # X + + + @ ",
"+ + d =.C.Z.u.] ) | :.[ } [ 6.D.I.S.c.z.s.s.s.s.s.s.s.s.s.x.n.L.L.B.2.' } } [ [ { ` { 1.^ d O + @ + ",
"* m g.G.j.| $.z.f.*.' ;.} } [ 2.p.B.V.V.V.m.n.M.M.N.M.M.V.M.M.l.a.} [ ;.[ ;.} [ y.p.t.] :.1.m * + @ ",
"d [ 3.5.;.| %.X... .#.| =.} } [ =.-.1.3.u.p.i.6.i.i.i.5.5.>.:.[ [ [ [ ;.[ [ [ D A K G 1.[ ] / d O @ ",
"+ ; p v I ! ' [ &.#.=.[ [ [ } } } } [ [ [ { _ [ ] { ] [ [ [ } } } [ } [ [ } :.F V ( W m f 4 $ O @ @ ",
"+ o $ 6 t p p b T ) [ :.:.;.} [ [ [ } ;.' H d.J Z C <.;.[ [ [ [ [ } :.:.:.[ ~ P k 4 < = @ + O @ + + ",
"+ @ + + * 7 t i r u c I ! ] [ ;.:.:.;.;.} F L D S t.[ | } :.:.:.} [ ~ Y b 0 < = < < % @ @ @ @ @ + @ ",
"+ + + # O O # ; q y u e r i c n U Q / ] [ { ] ] { { ] ] ) Q R I v a r r q > < = # + + @ @ @ + @ @ @ ",
"@ @ + + @ @ + O + $ 4 6 y r r r w r r i u c p u y a p u y r e e r r r 5 3 # @ O + @ @ @ @ @ @ @ @ @ ",
"@ @ @ @ + + + + + + o + @ - a t u p y r r r r r r r r r r t q 8 9 4 = O o + + @ @ @ + @ @ @ @ @ @ @ ",
"@ @ @ @ @ @ @ + @ @ @ @ + O 3 p y y y y r r r y r r u 8 < > > > > = @ @ @ @ @ @ @ @ @ @ @ @ @ @ @ @ ",
"@ @ @ @ @ @ @ @ @ @ + @ @ + + ; w p y t r r t r r r r t < > > < = @ @ @ @ @ @ @ @ @ @ @ @ @ @ + @ @ ",
"@ @ @ @ @ @ @ @ @ @ @ @ + @ @ + # 3 q y i i u i i i i q > < - $ + @ @ + @ @ @ @ @ @ @ @ @ @ @ @ @ @ ",
"@ @ @ @ @ @ @ @ @ @ @ @ @ + + + + + @ % : 3 3 3 3 3 3 - % @ @ + @ @ + @ @ @ @ @ @ @ @ @ @ + @ @ @ @ ",
"@ @ @ @ + @ @ @ @ @ @ @ @ @ @ + @ @ + + O O O + O O O O + + @ @ + + @ @ @ @ @ @ @ @ @ @ @ @ @ @ @ @ ",
"@ @ @ @ @ @ @ @ @ @ @ @ @ @ @ @ + @ + @ @ @ @ @ @ @ @ @ @ @ @ + @ @ @ @ @ @ @ @ @ @ @ @ @ @ @ @ @ @ ",
"@ @ @ @ @ @ @ @ @ @ @ + @ @ @ @ @ @ @ @ @ @ @ @ + @ @ @ @ @ @ @ @ @ @ @ @ @ @ @ @ @ @ @ @ @ @ @ @ @ ",
"+ @ @ @ @ @ @ @ @ @ @ @ @ @ @ @ @ @ @ @ @ @ @ @ @ @ @ @ @ @ @ @ @ @ @ @ @ @ @ @ + @ @ @ @ @ @ @ @ @ ",
"@ @ @ @ @ @ @ @ @ @ @ @ @ @ @ @ @ @ @ + @ @ @ @ @ @ @ @ @ @ @ @ @ @ @ @ @ @ @ @ @ @ @ @ @ @ @ @ @ @ ",
"@ @ @ @ @ @ @ @ @ @ @ @ @ @ @ @ @ @ @ @ @ @ @ @ @ @ @ @ @ @ @ @ @ @ @ @ @ @ + @ @ @ @ @ @ @ @ @ @ @ ",
"@ @ @ @ @ @ @ @ @ @ @ @ @ @ @ @ @ @ @ + @ @ @ @ @ + @ @ @ @ @ @ @ @ @ @ @ @ @ @ @ @ @ @ @ @ @ @ @ @ ",
"@ @ @ @ @ @ @ @ @ @ @ @ @ @ @ @ @ @ @ @ @ @ @ @ @ @ @ @ @ @ @ @ @ @ @ @ @ @ @ @ @ @ @ @ @ @ @ @ @ @ ",
"@ @ @ @ @ @ @ @ @ @ @ @ @ @ + @ @ @ @ @ @ @ @ @ @ @ @ @ @ @ @ @ @ @ @ @ @ @ @ @ @ @ @ @ @ @ @ @ @ @ ",
"@ @ @ @ @ + @ @ @ @ @ @ @ @ @ @ @ @ @ @ @ @ @ @ @ @ @ @ @ @ @ @ @ @ @ @ @ @ @ @ @ @ @ @ @ @ @ @ @ @ ",
"@ @ @ @ @ @ @ @ @ @ @ @ @ @ @ @ @ @ @ @ @ @ @ @ @ @ @ @ @ @ @ @ @ @ @ @ @ @ @ @ @ @ @ @ @ @ @ + @ @ ",
"@ @ @ @ @ @ @ @ + @ @ @ @ @ @ @ @ @ @ @ @ @ @ @ @ @ @ @ @ @ @ @ @ @ + @ @ @ @ + @ @ @ @ @ @ @ @ @ @ ",
"@ @ @ @ @ @ @ @ @ @ @ @ @ @ @ @ @ @ @ @ + @ @ @ @ @ @ @ + @ @ @ @ @ @ @ @ @ @ @ @ @ @ @ @ @ @ @ @ @ ",
"@ @ @ @ @ @ @ @ @ @ @ @ @ @ @ @ @ @ @ @ @ @ @ @ @ @ @ @ @ @ @ @ @ @ @ @ @ @ @ @ @ @ @ @ @ @ @ @ @ @ ",
"@ + @ @ @ @ @ @ @ @ @ @ @ @ @ @ @ @ @ @ @ @ @ @ @ @ @ @ @ @ @ @ @ @ @ @ @ @ @ @ @ @ @ @ @ @ @ @ @ + ",
"@ @ @ @ @ @ @ @ @ @ @ @ @ @ @ @ + @ @ @ @ @ @ @ @ @ @ @ @ @ @ @ @ @ @ @ @ @ @ @ @ @ @ @ @ @ @ @ @ @ "
};
