/* XPM */
static char *b398b36da7734fcceae405f0d40aefabenD7hJuaqteVPaq2[] = {
/* columns rows colors chars-per-pixel */
"50 50 180 2 ",
"   c #0D1412",
".  c #121716",
"X  c #121A17",
"o  c #161C1A",
"O  c #191E1D",
"+  c #1B201F",
"@  c #1C2120",
"#  c #212525",
"$  c #232827",
"%  c #252528",
"&  c #262A29",
"*  c #292C2D",
"=  c #2B302F",
"-  c #2A2B32",
";  c #302D34",
":  c #342A3A",
">  c #3A2F3F",
",  c #2D3232",
"<  c #313635",
"1  c #333837",
"2  c #35333C",
"3  c #3B343D",
"4  c #353B3A",
"5  c #383E3D",
"6  c #3B403F",
"7  c #3E3544",
"8  c #442E4B",
"9  c #453649",
"0  c #473951",
"q  c #513857",
"w  c #5B3466",
"e  c #5C3964",
"r  c #5E3569",
"t  c #61366C",
"y  c #633C6C",
"u  c #3D4242",
"i  c #414645",
"p  c #434847",
"a  c #454A49",
"s  c #494D4D",
"d  c #4B504F",
"f  c #534355",
"g  c #514D56",
"h  c #5C4A5D",
"j  c #4E5251",
"k  c #515554",
"l  c #555959",
"z  c #5A5E5D",
"x  c #5C605F",
"c  c #5A4B70",
"v  c #655465",
"b  c #6E4876",
"n  c #744C7B",
"m  c #765979",
"M  c #5E6262",
"N  c #626665",
"B  c #656969",
"V  c #6A6D6D",
"C  c #696471",
"Z  c #7A6679",
"A  c #6E7271",
"S  c #727776",
"D  c #757A79",
"F  c #797D7C",
"G  c #D17D68",
"H  c #7B807F",
"J  c #F28C2E",
"K  c #F5A154",
"L  c #D38875",
"P  c #ED9F66",
"I  c #F5AE6C",
"U  c #7A5B85",
"Y  c #7A7180",
"T  c #855C88",
"R  c #925D8A",
"E  c #83628B",
"W  c #896A8E",
"Q  c #906D8D",
"!  c #8B6A93",
"~  c #976C97",
"^  c #8D7994",
"/  c #927397",
"(  c #987299",
")  c #B2758B",
"_  c #A6739D",
"`  c #A679A2",
"'  c #AA78A5",
"]  c #AB7DA6",
"[  c #AD7FA9",
"{  c #B37BA5",
"}  c #7D8181",
"|  c #12F7F9",
" . c #2DFFFE",
".. c #75DEE6",
"X. c #818484",
"o. c #868A89",
"O. c #8B8E8E",
"+. c #8E9291",
"@. c #919494",
"#. c #959999",
"$. c #9A9E9E",
"%. c #9B83A2",
"&. c #8B97B8",
"*. c #9695B7",
"=. c #A685A7",
"-. c #A28BA6",
";. c #AE81A9",
":. c #B184AC",
">. c #B389AE",
",. c #A997AD",
"<. c #AA95AE",
"1. c #B585B1",
"2. c #B48DB1",
"3. c #AB99B1",
"4. c #B694B3",
"5. c #B993B5",
"6. c #BC97BA",
"7. c #B79CB8",
"8. c #BD9ABA",
"9. c #9EA2A2",
"0. c #A1A5A5",
"q. c #A7ACAC",
"w. c #AAACAC",
"e. c #AFB0AF",
"r. c #B4A6BB",
"t. c #AEB2B2",
"y. c #B3B4B3",
"u. c #B7B9B7",
"i. c #B9B7B9",
"p. c #B5B8BA",
"a. c #BBBCBC",
"s. c #C9908C",
"d. c #CF9E9F",
"f. c #D7A397",
"g. c #F0BB8F",
"h. c #C293A1",
"j. c #C498B7",
"k. c #D0ABAE",
"l. c #C1A2BD",
"z. c #BFC0BE",
"x. c #F2D0AF",
"c. c #BD9DC1",
"v. c #BEA2C4",
"b. c #BBAEC1",
"n. c #AEBCCE",
"m. c #BDB0C3",
"M. c #C4A5C2",
"N. c #C9A9C7",
"B. c #C6BAC8",
"V. c #BEC2C2",
"C. c #A1CCD9",
"Z. c #C3C3C3",
"A. c #C8C4C7",
"S. c #C9C9C7",
"D. c #C7C9C8",
"F. c #CCCCCB",
"G. c #D0C7CE",
"H. c #D0CDCF",
"J. c #CFD0CF",
"K. c #CCC4D2",
"L. c #CCCFD1",
"P. c #D3C5D1",
"I. c #D3CCD4",
"U. c #DDC4DA",
"Y. c #D3D3D3",
"T. c #D6D8D7",
"R. c #DCD5DC",
"E. c #DBDBDC",
"W. c #E1D3DF",
"Q. c #E1DBDE",
"!. c #DDDCE1",
"~. c #DEE1E2",
"^. c #E4E5E3",
"/. c #E7E9E5",
"(. c #E8E8E6",
"). c #E6E4EA",
"_. c #E9E7EC",
"`. c #EFEFF2",
"'. c #F6F7F9",
"]. c #F8FAFB",
/* pixels */
"@ @ @ @ @ @ @ @ @ @ @ @ @ @ @ + @ @ @ @ @ @ @ @ @ @ @ @ @ @ @ @ @ @ @ @ @ @ @ @ @ @ @ @ @ @ @ @ @ @ ",
"@ @ @ @ @ @ @ @ @ @ @ @ @ + @ @ @ @ @ @ @ @ @ + @ @ @ @ @ @ @ @ @ @ @ @ @ @ @ O @ @ @ @ @ @ @ @ @ @ ",
"@ @ @ + @ @ + @ @ @ @ @ @ @ @ @ @ @ @ @ @ @ @ @ @ @ @ + @ @ + @ @ @ @ @ @ @ @ @ @ @ @ @ @ @ @ @ O @ ",
"@ @ @ @ @ @ @ @ @ @ @ @ @ @ @ @ @ + @ @ @ @ @ @ @ @ @ @ @ @ @ @ @ @ @ @ @ @ @ @ @ @ @ @ @ @ @ @ @ @ ",
"@ @ @ @ @ @ @ + @ @ @ @ @ @ @ @ @ @ @ @ @ @ @ @ @ @ @ @ @ @ @ + @ @ @ @ @ @ @ @ @ @ @ @ O @ @ @ @ @ ",
"@ @ @ @ @ @ @ @ @ @ @ @ @ @ @ @ @ @ @ @ @ @ @ @ @ @ @ @ @ @ @ @ @ @ @ @ @ @ @ @ @ @ @ @ @ @ @ @ @ @ ",
"@ @ + @ @ @ @ @ @ @ @ @ @ @ @ @ @ @ @ @ @ @ @ @ @ @ @ @ @ @ @ @ @ O @ @ @ @ @ @ @ @ @ @ @ @ @ @ @ @ ",
"+ @ @ @ @ @ @ @ @ @ @ @ O @ @ @ @ @ + O @ @ @ @ # @ @ @ @ O @ @ @ @ @ @ @ @ @ @ @ @ @ @ @ @ @ @ @ @ ",
"@ @ @ @ @ @ @ @ @ @ @ @ @ @ @ @ @ + @ @ @ + O + o O O + # @ @ O @ @ @ @ @ @ @ @ @ @ + @ @ + @ @ @ @ ",
"@ @ @ @ @ @ @ @ + @ @ @ @ @ @ @ + @ @ X X @ & = < = & + . X + # O @ @ @ @ @ @ @ @ @ @ @ @ @ @ @ @ @ ",
"@ + @ @ @ @ @ @ + @ @ @ @ @ O @ @ O o s @.Z.R.Q.Q.E.Y.u.} i O o # O @ @ @ @ @ @ @ @ @ @ @ @ @ @ @ @ ",
"@ @ @ @ @ + @ @ @ @ @ @ @ @ @ @ X 5 9.~.`.(.^.^.^.~.~.^.^.H.+.1 X @ @ @ @ @ @ @ @ @ @ @ @ @ @ @ @ @ ",
"@ @ @ @ @ @ @ @ @ @ @ @ @ @ @ o z S.Q.T.T.Y.T.Y.Y.Y.Y.J.H.Y.Y.u.k X @ @ @ @ @ @ @ + @ @ @ @ + @ @ @ ",
"@ @ @ @ @ @ @ @ @ @ @ @ @ @ X l S.Y.F.F.F.F.F.S.S.S.S.S.S.Z.Z.Z.a.k X @ + @ @ @ @ @ @ @ @ @ @ @ @ @ ",
"@ @ @ @ @ + @ @ @ @ @ + @ o 4 y.S.Z.Z.Z.z.z.z.z.a.a.a.a.a.i.i.u.i.w.< O @ + + @ @ @ @ @ @ @ @ @ @ @ ",
"@ @ @ + @ @ @ @ + @ @ @ # o X.a.y.u.u.y.y.y.y.y.e.e.e.e.e.y.e.y.e.a.D o # @ @ + @ @ @ @ @ @ @ @ @ @ ",
"@ @ @ @ @ + @ @ @ @ @ +   & w.y.u.i.l.Z.z.A.A.A.A.A.S.A.k.z.i.u.y.u.0.+ + + + + + + + + @ @ @ @ @ + ",
"@ @ @ @ @ + # @ o . O 4 h @.R.Q.Q.Q.~./.^./.(.(.(.(./.^./.^.Q.R.Y.G.A.v ; + X O + # @ + @ @ @ @ @ @ ",
"@ + + + @ + X O 9 Z <.B.N.U.(.(./.^./.^.^.^.^.^.^.^.^.^.^.^./././.Q.Q.8._ Q v 3 + o + @ @ @ @ @ @ @ ",
"+ @ @ + X % h -.U.U.N.>._ l.(.Q.^.^.^./././.^.^.^.^.^.^././.^.^.^./.Q.2.;.:.1.;.Q h * X O @ @ + @ @ ",
"@ + o % h 4.W.U.8._ _ ;.] 5.~.^.^.^.~.T.Y.F.F.S.S.S.F.J.Y.E.^.^.^./.I.{ ] ] [ ;.:.1._ v # X + @ + @ ",
"+ o f =.U.U.j._ _ { ;.;.[ ] l.Q.^.E.S.z.z.z.z.z.z.z.z.z.z.z.F.^.^.P.>.[ [ [ ;.{ ] ] :.2.( f o O @ + ",
"* m l.W.B.{ &.C.n.*.;.;.[ ] ] 2.k.P.I.I.H.I.H.H.H.F.H.G.H.I.G.B.l.;.] ] [ [ ;.;.h.k.s._ ;.>.Z & + @ ",
"f ] j.j.;.{ &... .| &.{ ;.[ ] ] =.;.2.6.l.l.l.N.N.l.M.l.j.5.:.{ _ ] ;.;.] [ ) G J I L :.{ _ _ f + @ ",
"o : y n T ~ { ' *.&.=.] [ [ [ [ ;.;.>.;.:.2.:.2.>.2.>.2.:.:.;.;.;.[ [ ;.[ [ ;.L G ) ! m g 7 @ + + + ",
"+ + $ 9 q t y n R ` { ;.:.[ [ ;.;.2.2.5.5.f.x.g.K s.6.7.5.2.2.2.;.;.;.;.[ ] ( U c 7 7 - @ + @ @ + + ",
"+ @ + + % 9 t t w r b U ~ ` [ 2.5.5.4.8.6.f.g.I P d.v.8.6.6.6.5.2.;._ T n 0 2 ; , : - @ @ @ @ @ + @ ",
"+ + + + O o @ 7 q r r w w t n T ~ =.2.8.c.v.8.M.N.N.v.8.4.<.` / E b y r q 2 2 - @ @ o @ @ @ @ + @ @ ",
"@ @ @ @ # # # O + @ 2 9 e b b m U E ^ %.%.*.<.<.<.<.3.%.%./ ! E U n c 0 : @ @ + @ @ @ & @ @ @ @ @ @ ",
"@ @ @ @ # $ * < 1 6 , , 1 g U W ^ %.-.<.r.v.b.b.b.b.b.r.3.<.%.o.Y C g 4 , , 4 u 7 , = @ @ @ @ @ @ @ ",
"+ + + + @ O O @ & , u k M D %.r.r.v.m.B.B.K.K.I.I.I.K.A.p.t.q.0.9.#.} S M u 6 @ @ @ @ @ + + @ + @ @ ",
"@ @ @ @ @ @ @ + @ @ @ 4 j v } 9.m.K.!.!.).)._._._._.).).!.T.L.V.q.O.A x u , @ @ @ @ @ @ @ @ + @ @ + ",
"@ @ @ @ @ @ + + + $ - 5 s z V F #.y.K.!._.'.].].].].].`.~.L.p.9.} D M l u 4 & @ @ @ @ @ @ @ @ @ @ @ ",
"@ @ O @ @ + # O + @ $ < s B X.9.t.V.L.Y.T.!.~.~.(.~.!.E.T.T.D.z.t.@.D M u = @ @ @ @ @ @ @ @ @ @ @ @ ",
"+ + @ @ O + O + $ < u k V F X.O.+.#.9.0.t.p.m.V.V.V.p.p.w.9.#.@.+.} } S M j 6 & @ @ @ @ @ @ @ @ @ @ ",
"@ @ + @ # $ * < 1 4 1 < < 4 p k M A H o.+.$.9.9.9.9.9.#.+.} D V M s u 1 = , 1 4 4 , & @ @ @ @ @ @ @ ",
"@ @ + @ # # # @ + + o O + & < u s l M V A F H X.} } H D A M M j u u , @ @ @ + o @ @ @ @ @ @ @ @ @ @ ",
"+ + @ @ O O + + + @ @ @ + # * < 5 p s j l x N N B M M M l k u 6 4 = & @ @ @ @ @ @ @ @ + @ @ @ @ @ + ",
"@ @ O @ @ @ @ + + @ @ @ + + # * , 5 u a s j k k l k k j s u 6 6 = = @ @ @ @ @ @ @ @ @ @ @ @ + @ @ @ ",
"@ @ @ @ @ @ @ @ @ @ @ + + + + # * , 4 5 u p a a s a u u u 6 , = @ @ @ @ @ @ @ @ @ @ @ @ @ @ @ @ @ @ ",
"@ @ @ @ + @ @ @ @ @ @ @ + @ + + @ & = , 1 4 4 6 6 6 4 1 1 = * # @ + @ @ + @ @ @ @ @ @ @ @ @ @ @ @ @ ",
"@ @ + @ @ @ @ @ + @ @ @ @ + + @ + @ @ $ & = = , = , = * $ # @ + + @ + + @ @ @ @ @ @ @ @ @ @ @ @ @ @ ",
"@ @ @ @ @ @ @ @ @ @ @ @ @ @ + @ @ + + + + @ # # @ # # @ @ + + + @ + @ @ @ @ @ @ @ @ @ @ @ + @ @ @ @ ",
"@ @ @ @ @ @ @ @ @ @ @ @ @ @ @ @ + @ @ @ + + + + + + + + @ + @ @ + @ @ + @ @ + @ @ @ @ @ @ @ @ @ @ @ ",
"@ @ @ + @ @ @ @ @ @ @ @ @ @ @ @ @ + @ @ @ @ @ @ + @ @ @ @ @ + @ @ @ @ @ @ @ @ @ @ @ @ @ @ @ @ @ @ + ",
"@ @ @ @ @ @ + @ @ @ @ @ @ @ @ + @ @ @ + @ + @ @ + @ + @ @ @ @ @ @ @ + @ @ @ @ @ @ @ + @ @ @ @ @ @ @ ",
"@ @ @ @ @ @ @ @ @ @ @ + @ @ @ @ @ @ @ @ @ @ @ @ @ @ @ @ @ @ @ @ @ @ @ @ @ @ @ @ @ @ @ @ @ @ @ @ @ @ ",
"@ @ @ @ @ @ @ + @ @ @ @ @ @ @ @ @ @ @ @ + @ @ + @ @ @ @ @ @ + @ @ @ @ @ @ + @ @ @ @ @ @ @ @ @ + @ @ ",
"@ @ @ @ @ @ @ @ @ @ @ @ @ @ @ @ @ @ @ @ @ @ @ @ @ @ @ @ @ @ @ @ @ @ @ @ @ @ @ @ @ @ @ @ @ @ + @ @ @ ",
"@ + @ @ @ @ + @ @ @ @ @ @ @ @ + @ @ @ @ + @ @ @ @ @ @ + @ @ @ @ @ @ @ + @ @ @ @ + @ @ @ @ @ @ @ @ @ "
};
