/* XPM */
static char *d72927a9169d43a0d720e78924006bebrynYhaBUbCTFDPg5[] = {
/* columns rows colors chars-per-pixel */
"50 50 80 1 ",
"  c #0F161F",
". c #121A1F",
"X c #1B201F",
"o c #21251F",
"O c #26291F",
"+ c #292B1F",
"@ c #171D20",
"# c #191F20",
"$ c #1C2120",
"% c #212625",
"& c #242827",
"* c #2B2D20",
"= c #252A29",
"- c #292E2C",
"; c #2C302F",
": c #333220",
"> c #3C3A20",
", c #2E3230",
"< c #313633",
"1 c #353936",
"2 c #373A38",
"3 c #3A3D3A",
"4 c #433F20",
"5 c #3E413D",
"6 c #484321",
"7 c #4F4921",
"8 c #5E5422",
"9 c #40433F",
"0 c #675B23",
"q c #6B5E23",
"w c #726423",
"e c #7C6C24",
"r c #434641",
"t c #464943",
"y c #4A4C46",
"u c #4D4F48",
"i c #4E5048",
"p c #53554B",
"a c #57584D",
"s c #5A5A4E",
"d c #5E5E51",
"f c #605F51",
"g c #636353",
"h c #686654",
"j c #6C6A55",
"k c #716E57",
"l c #757157",
"z c #787457",
"x c #777358",
"c c #7B7558",
"v c #7E7958",
"b c #887525",
"n c #927D26",
"m c #857D57",
"M c #887F57",
"N c #817B58",
"B c #978127",
"V c #988227",
"C c #A08727",
"Z c #AA8F27",
"A c #A48B28",
"S c #A98F29",
"D c #AD922A",
"F c #B5992B",
"G c #BA9D2C",
"H c #AC953C",
"J c #B39A35",
"K c #B99D33",
"L c #B09838",
"P c #BEA12E",
"I c #BEA131",
"U c #9C8D4D",
"Y c #8C8256",
"T c #928654",
"R c #958952",
"E c #988B50",
"W c #A08F4B",
"Q c #A59246",
"! c #A99441",
"~ c #A29049",
/* pixels */
"$$$$$$X$$X$$$.XXXXXXX$%%%%%%%$$$$$X$$$$$$$$$$$$$$$",
"$$X$$$$$$$$X$$XXX$%=-;,,<<<,,;;=%$$XX$$$$$$$$$X$$$",
"$$$$$$$$$$$$XXX%&;<<233535555321,,-%$$$$XX$$X$$$X$",
"$X$$$$$XX$$$X%=;<139rtttyyyyttr5521,=$$$$$.$$$$$$$",
"$X$$$$$.$XX$%;<25rtuupppapapppiuyt921,=$X$$X$$$XX$",
"$$$$X$X$$X$=,15ryipassdgggggffsapiyt92<-%XXXX$$$$$",
"$$XXXX$$$%-<3rtipssgggjjhjjjhhhgddpiyr51;&$X$XX$$$",
"$$XXX%XX$-13typsdghjklllxcllllljhggdpiy52;&$X$X$$$",
"X$$$X$X%-13yipdghjllzcvvNNvNvcxxxjjgdsiu92,%XX$X$$",
"$$$X$X$-13tuafgjklcvmmYYYYYYYYYvvzljhfsiy92,$X$$X$",
"$$XXXX=<3tuaggjlcvNYYYYRTRTTRTYYvvcxkjgsiy92,$X$X$",
"$$$$X%,3tuafgklcvYYTERUUUUUUERRYYYYvxkhgdit5,-$$$X",
"XX$X%-19ypshkzvmYYTRUWW~~~~~~~UERTYYvzlhdsit2,%$$$",
"$$$X&<3tpsgjlvNYTEU~~Q!!HHH!!QQ~UURYYvxlhfpy91;$XX",
"$$X$-19uagjlvNYTEU~QHHHJKKKKLH!!QUERYYvxkgdit5,%X$",
"$$X&<5ypshkzNYTEU~!HHKPDBnBAGIJH!QWRTYNcljgay92-$X",
"$$$-19isgjlvYYEU~!HKPC8*XXXX6bPKHHQWRRYNzjhdpt2,%X",
"$$$,3tidhkzNYTU~!HJPqX.X$$$$..4ZKL!QUEYMvlhfpy5<%X",
"$$$15ypfhlvMTEUQHLG8.$$X$X$$oX :ZKH!~URYNxjhair2-X",
"$$=19isgjcNMTUWHHPw $$X$$$$$$XX.>FJH~UEYYckhdpr2;$",
"$$-2ridgkcmYEUQHKVo$$X$$$$X$$$X$.wIH!~RTmvxhfpt5,%",
"@$,2tidhlvMTUUQHPq $XX$$$$$$X$$$.:FJ!~URYvxhgay5<%",
"$$,2tpfhlvYYUW!LF>.$$$$$$X$$$$$X$XBKH~URYNckgay9<&",
"$$,5ypfhlcYRU~!JD+$$$$$X$$$$X$$$$@eIHQURYNcjgay91&",
"$$,3tpfhlvmTE~!JDX$$$$$$$$$$$$$$$ wIHQURYmzjgsu9<&",
"$$,3ypfjlvYTU~!JDO@$$X$$$$$$X$$$$.eIHQURYMzkgau91&",
"$$,5ypfhlvYTE~!JG>X$$$X$X$$$$$X$$$BKHQURYNzjgau5<&",
"$$,2tidhlcmTE~QHIq.XX$$$$$$XX$$$@:FJ!~UTYvljgpy5<%",
"$$-1ridgjcmYEUQHKZXX$X$$X$$$$$X$ wPHQ~ETMvlhgpt3;%",
"$$=19isgkxNYRU~!HPw X$X$$$$$$X%.>FJHQUEYMzkhspt2;$",
"$$=,5ypdhlcYYRUQHLP7 $$X$$$XXX.+AKH!~URYmxjhsir1-X",
"$$$,3tidhkcNYEUW!LJF0X.$$$XX..4ZGH!~UEYMclhgpy5<&X",
"$.$-15iaghxvYYRU~!HJPV7OXXXX>eGKHHQUETYNcjhspt3,%X",
"$$$%,5tpfhlxvYTRW~!!HIISVnBSGIJH!~~UTYmvxhgpy91=$X",
"$$X$;2riaghxcmYTRU~Q!HLJJKKJLHHQQUETYmvljgdpt3,%X$",
"$$$$=,5tidgjxcmYTRUUQQ!!!HH!!QQ~UREYYNzlhgpyr2-$XX",
"$X$X$-25ypdgjxvYYTTRUU~~~QQ~~~UEETYMNcjhgput2,%$$$",
"$$$$$$,3riadhjlcvYYTRREEUUEUEETTYYNvcjhgspt5<=$#$X",
"$$X$$$=,5risfhjlcvvYYTYTTTRTTYYYmNcxjhgspt91;$$$X$",
"$X$X$$$;<5tipdhhkxcvvYYYYYYYYYNNvxljhgspt91;%#$$$$",
"$$$$X$$$-<5ripdghjllxcvvNNNvvccxlkjgssiy92,%XX$X$X",
"$X$$X$$X$;<5ryppdghjkllxxxxxllkjhggsput51,&$X$X$$$",
"$$$$$XX$$$;<5rtipsddghhjjkjjhhggsspiu951;%$XXX$$$$",
"X$$$$$X$$$$-,25ryiissdddgdgdddsappyt93<-%XX$X$$$X$",
"$$$$$$$X$$X$$;<25rtyiipppaapipiitt531,=%X$$X$$$$$$",
"$$$XX$$$XX$X$$=;,1399tytyyyyttt9531;=%$.$$X$$$$X$$",
"$$$$$$X$X$X$$$$$-;,1135559553321<;=%$XX$$X$X$X$$X$",
"$X$$$$$$$$$X$$$$$$$$-,,,,,,,,;--%$XXX$$X$X$$$$$$$$",
"$$$$$$$$$$$$XX$$XXXX$$$$$$-$$$$$XXX$$$X$X$$$X$$X$$",
"X$$$$X$$X$$$$$X$$$$$XX$$$$$$$$$$$X$$XX$$$$$$$$$$$$"
};
