/* XPM */
static char *d02c73e395cf43e7f0ddd829357e6a36cS4LkvvoF03azOzE[] = {
/* columns rows colors chars-per-pixel */
"50 50 201 2 ",
"   c #12120E",
".  c #131715",
"X  c #161916",
"o  c #1A1A17",
"O  c #161B1A",
"+  c #1A1E1C",
"@  c #211F19",
"#  c #1B201F",
"$  c #23211D",
"%  c #2A231D",
"&  c #1C2120",
"*  c #232523",
"=  c #282926",
"-  c #242929",
";  c #322E29",
":  c #36332E",
">  c #2C2F30",
",  c #2D3637",
"<  c #313535",
"1  c #383938",
"2  c #4F1615",
"3  c #661D24",
"4  c #423D37",
"5  c #5A3E35",
"6  c #6C282A",
"7  c #742729",
"8  c #65302F",
"9  c #6D3131",
"0  c #44413C",
"q  c #383E43",
"w  c #07505E",
"e  c #364144",
"r  c #3C4F58",
"t  c #3E525A",
"y  c #3A5B6D",
"u  c #3B5D70",
"i  c #474847",
"p  c #524E48",
"a  c #4F514E",
"s  c #54524C",
"d  c #59544E",
"f  c #4A555B",
"g  c #595B55",
"h  c #5C5E5B",
"j  c #655B53",
"k  c #5B605D",
"l  c #63625D",
"z  c #69675D",
"x  c #485B64",
"c  c #515E62",
"v  c #5D6465",
"b  c #596A73",
"n  c #636562",
"m  c #696964",
"M  c #6A6B65",
"N  c #716D67",
"B  c #6E736D",
"V  c #71746D",
"C  c #767974",
"Z  c #7C7E7A",
"A  c #8B1C23",
"S  c #951D26",
"D  c #85242D",
"F  c #99252D",
"G  c #AE242F",
"H  c #A32833",
"J  c #AC2B35",
"K  c #B42C37",
"L  c #B42E39",
"P  c #B92C38",
"I  c #B8303B",
"U  c #826A3C",
"Y  c #935053",
"T  c #927842",
"R  c #9A7F7D",
"E  c #6E807A",
"W  c #74847E",
"Q  c #7D817C",
"!  c #84867D",
"~  c #B1A579",
"^  c #FFCB5D",
"/  c #3A708F",
"(  c #46758F",
")  c #51788C",
"_  c #617B8A",
"`  c #7D8582",
"'  c #7F898E",
"]  c #668799",
"[  c #4285AB",
"{  c #458FB9",
"}  c #6B8FA2",
"|  c #6D93AA",
" . c #779BAD",
".. c #749DB2",
"X. c #7CA0AF",
"o. c #7AA3B6",
"O. c #7AA5BC",
"+. c #7AA9C6",
"@. c #838582",
"#. c #818B85",
"$. c #898C87",
"%. c #8C8D89",
"&. c #86928E",
"*. c #8F918D",
"=. c #91918D",
"-. c #9C9589",
";. c #889898",
":. c #959694",
">. c #969996",
",. c #949A96",
"<. c #949B9A",
"1. c #9D9E9C",
"2. c #A48381",
"3. c #A49B94",
"4. c #8BA29D",
"5. c #9AA39E",
"6. c #A8A59B",
"7. c #B7B093",
"8. c #899BA5",
"9. c #97A7A6",
"0. c #9BA2A2",
"q. c #9CAAA6",
"w. c #8DA6B3",
"e. c #8BA7B6",
"r. c #9BB6B0",
"t. c #A4A5A3",
"y. c #A5A8A7",
"u. c #AAABA5",
"i. c #ABADAA",
"p. c #B4AAA3",
"a. c #A2B3AF",
"s. c #ADB0AB",
"d. c #B3B3AC",
"f. c #BCB5AD",
"g. c #A3B6B1",
"h. c #AAB6B6",
"j. c #B4B5B2",
"k. c #B3BAB5",
"l. c #BABBB5",
"z. c #B2BDBA",
"x. c #BBBDBB",
"c. c #C5BAB1",
"v. c #B3C0BD",
"b. c #BBC1BC",
"n. c #CEC494",
"m. c #C2C3BD",
"M. c #8DB1C4",
"N. c #89B4CA",
"B. c #8EB7CD",
"V. c #8BBAD3",
"C. c #8EC1DC",
"Z. c #91C2DD",
"A. c #B9C7C4",
"S. c #B6D1CD",
"D. c #BED7D3",
"F. c #BFD8D5",
"G. c #8DC4E6",
"H. c #94C9E6",
"J. c #95CBE8",
"K. c #99CEEB",
"L. c #9CD1EE",
"P. c #9DD4F2",
"I. c #A0D8F7",
"U. c #A3DDFC",
"Y. c #C4C5C3",
"T. c #C5CAC4",
"R. c #CBCCC5",
"E. c #C5CBC9",
"W. c #CBCEC9",
"Q. c #CED1CC",
"!. c #D1D4CE",
"~. c #C1DAD7",
"^. c #CBD9D5",
"/. c #C2DCD9",
"(. c #D3D6D1",
"). c #D5D9D4",
"_. c #D9DCD6",
"`. c #D4DBD9",
"'. c #DBDED9",
"]. c #C6E1DE",
"[. c #CEE1DE",
"{. c #DDE1DB",
"}. c #E1E4DE",
"|. c #C9E4E2",
" X c #CBE6E4",
".X c #CCE9E6",
"XX c #D4E7E5",
"oX c #D2ECEA",
"OX c #DAEEEC",
"+X c #D4F1EF",
"@X c #D5F4F2",
"#X c #DDF3F1",
"$X c #E2E6E0",
"%X c #E7EAE4",
"&X c #E4EEED",
"*X c #E6F0EF",
"=X c #E4F4F3",
"-X c #EAF5F5",
";X c #E7FAF9",
":X c #F3FEFD",
">X c #FEFFFF",
/* pixels */
"& & & & & & & & & & & & & & & & + & q - O & & & & & & & & & & & & & & & & & & & & & & & & & & & # & ",
"& & # & & & & & & & & & & & & & & & i > * # & & * & & & * & & & & & & & & & & & & & & & & & & & & & ",
"& & & & # & & & & & & & & & & & & + q q > + O O . O O . . . # & & & & & + & & & & & & & & & & # & & ",
"& & & & & & & & & & & & & & & & & O w q - & i i M ' :.=.B a - # O & O # & & & & & & & & & & & & & & ",
"& & & & & & & & & & & & & & & & & & q 1 n 1.j.W.$X%X%XQ.i.y._ 2.0.%.B # & & & & & & & & & & & & & & ",
"& & & & & & & & & & & & & & & & & O i h @.y.j.}._.'.Y.t.N.G.Z.B.h.~ n.q O & & & # & & & & # & & & & ",
"& & & & # & & & & & & & & & & & . i _ Z :.x.W.'.{.Y.i.M.P.L.I.I.H.4.7.i O & & & & & & & & & & & & & ",
"& # & & & & & & & & & & & & & O q x.m.m.}.$X}.{.!.p.e.L.L.L.L.L.P.P.B.e O & & & & & & & & & & & # & ",
"& & & & & & & & # & & # & & + & y.W.j.'.(.c._.'.j.9.H.P.L.L.L.L.L.L.P...& & & & & & & & & & & & & & ",
"& & & & & & & & & & & & & & O C (.i.(.}.Y.p.(.Y.t.V.I.L.L.L.L.L.L.L.L.U.] X & & & & & & # & & & & & ",
"& & & & & & & & & & & + & + , x.x.x.}.'.'.(.(.i.e.P.L.L.L.P.L.L.L.L.L.L.K.e . & # & & & & & & & & & ",
"# & & & & & & # & & & & & O n W.j.(.).f.R.$Xj.0.G.P.L.L.L.L.L.L.L.L.L.K.U.] . & & # & & & & & & & & ",
"& & & # & & & & & & & & & + :.E.j.}.(.f.W.(.t.M.I.L.L.L.L.L.L.L.L.L.L.L.P.V.- + & & & & & # & & & & ",
"& & & & & & & & & & & & + * j.x.x.}.`.{.}.j.0.G.L.L.L.L.L.L.L.P.L.L.L.L.P.J.q o & # & & & & & & & & ",
"& & & & & & & & & & & & O 1 b.j.W.R.f.).(.t.M.P.L.L.L.L.L.P.L.L.P.L.L.L.P.P.r . & # & & & & & & & # ",
"& & & & & & & & & & & & O i E.j.Q.W.f._.Y.:.N.I.L.L.L.L.L.L.L.L.L.L.L.L.L.P.y . & # & & & & & & & & ",
"& & & & & & & & & & & & + q Y.j.W.}.'._.i. . .G.L.L.L.L.L.L.L.L.L.L.P.L.L.P.t . & & & & & & # & & & ",
"& & & & & & & & & & & & O - x.k.E.{.{.W.6.X.M.e.P.L.L.L.L.L.L.L.L.L.K.L.L.K.e o & & & & & & & & # & ",
"& & & & & & & & & & & + > l y.Y.x.}.'.j.' +.N.} N.J.H.K.P.L.L.L.L.P.L.L.P.V.& & & & & & & & & & & & ",
"& & & & & & & & & & + < t.j.%.Y.d.'.{.x.,.8.o...} ]  .O.C.L.L.L.L.L.L.P.U.] . & & & & & & & & & & & ",
"# & & & & & & & & & O C Q.` n x.l.W.}.{.W.u.;.e.H.o.o...o.L.L.L.L.K.L.P.K.e + & # & # & & & & & & & ",
"& & & & & & & & & + - j.j.< Y.t.t.x.}._.{.).l.5.8.B.C.C.K.P.L.L.P.L.L.P.] o & & & & & & & & # & & & ",
"& & & & & & & & & + > x.$.1 A.c.6.:.x.}.}.Q.p.p.d.t.<.w.M.Z.K.K.K.L.K.M.e + & & & & & & & & & & & & ",
"# & & & & & & & & + - i.6.a ) -.m.(.i.i.E.d.6.c.f.).W.d.t.<.8.8.e.8.;.,.h + & & & & & & & & & & & & ",
"& & # & & & & & & & O @.T.0.v i.A.A.Q.i.:.k.(.t.3.m.!.).W.m.l.3.=.-.s.{.! . & & & & & # & & & & & & ",
"& & & & & & & & & & O < 6.E.l.i.x.u.u.m.^.E.b.E.T.b.j.j.j.s.-.b.{.}.!.1.0 + & & & & & & & & & # # & ",
"& & & & & # & & & & & O > Q j.l.d.x.l.d.! Y Y R 3.p.f.c.c.p.6.6.,.N Q ! % & # & & & & & & & & & & & ",
"& & & & & & & & & & & & O : z.A.a.j t.Z A P G S 3 3 F H H 3 ` q.0 5.oX[.1 # & & & & & & & & & & & & ",
"& & & & & & & & & & & & X C #X#X[.g ].4.7 L L 9 T T 9 K I 7 ;.].l XXOX#XC O & # # & & & & & & & & & ",
"# & & & & & & & & & & & @ q.#X#Xy.B oXr.8 K H 5 ^ ^ 5 H K 8 r.+XB q.#XOXy.$ & # & & & & & & & & & & ",
"& & & & & & & & & & # + : ^.oX=X@.&.oXS.5 H L 7 U U 9 K H 5 S.oX;.! #XoX~.: # # & & & # & & & & & & ",
"& & & & & # & & # & # O 4 ^.#X=XV r. X|.n F L J D 7 J L F z ].].g.M ;X#XQ.4 # & & & & & & # & & & & ",
"& & & & & & & & & & & # e f C C s D.A.D.4.6 P J I K J I 3 4.+X].F.s Q C v e # # # # # # # & & & & & ",
"& & & & & # & & & & & @ f { [ / k q.f h g.j F I L L I F j S.Q B B 0 / [ { r # # # # # # & & & & & & ",
"& & & & & & & & & # & + p v x x h g O.] V W 2 S A A F 2 C @.u u _ x f x v p # # # # # # & & & & & & ",
"& & & # & & & & & & & X Z OX^.u.s p +.| d 5.$.%.%.%.%.$.,.z ( (  .b u.[.OXQ o # # # # # & # & & & & ",
"& & & & & & & & & & # X M #X;XA.d d o.| j ,.*.=.%.=.=.*.,.z ( (  .b b.;X+XM o # & & & & & & & & & & ",
"& & & & & & & & & # # # p [.5.z.s p +.| p &.` ` &.&.` Q #.z u u ) v v.5.].s o # & & & & & & & & & & ",
"& & & & & & & & & & # # ; A.M h.E ,.v f g.@X.XoXq.9.oXoXoX].Q V V s v.M A.: # # & # & & & & & & # & ",
"& & # & & & # & & # # # + n s s z ].4.a.].F.].g.% % a.].~./.|.].].M s s l $ # # # & & & & # & & & & ",
"& & & & & & & & & & # # & # # . p F..X X/.F..X,.$ $ ,..XF./.F./.].s o # # & # # & & & & & & & & & & ",
"& & & & & & & & & & & & # & # # 0 D./.F./.F..X` + o ` .XF.~././.D.0 # & # # & & & & & & # & & & & & ",
"& & & & & & & & & & & # # # # # : ~..X X|.].@XZ o o C +X|.|. X.XF.: # # # # # & & & & & & & & & & & ",
"& # & & & # & & & & # & # # # # : #.q.a.r.a.9.g + # g 9.a.r.g.q.` : # & & # & & & & & & & & & & & & ",
"& & & & & & & & & & & & # & # # = N @.Z ! Z @.d + + d ! ! Z Z ! N % # # & & & & & & & & & & & & & & ",
"& & & & & & # & & & & & # & & & o t.>X-X-X-X>X$.X X $.>X-X;X*X>Xu.o # # & & & & & & & & # & & & & & ",
"# & & & & & & & & # & & & # & & . l -X&X&X-Xx.s $ # s x.-X&X*X-Xz   # & # # # & & & # & & & & & # & ",
"& & & & & & & & & & & & & & & * d s.-X&X:Xt.l B $ $ B l t.:X&X*Xh.g & & & & & & & & & & & & & & & & ",
"& & & & & & & & & & & & & & # : `.:X=X-X&Xl D.5.# o 5.~.l *X-X=X:X_.: # # & & & & & & & & & & & & & ",
"& & & & & & # & & & & & & & # * s M M M l 0 g : # # : g 0 l M M M s * # # & & & & & # & & & & & & & "
};
