/* XPM */
static char *_52c770ff64c4b4fc25419b184ef1ec51EMv8uHW0tXN47JZ[] = {
/* columns rows colors chars-per-pixel */
"50 50 226 2 ",
"   c #171C1D",
".  c #191E1E",
"X  c #1B201F",
"o  c #1C2120",
"O  c #222622",
"+  c #262A25",
"@  c #2A2D27",
"#  c #2C2F29",
"$  c #2D3029",
"%  c #33342C",
"&  c #39382A",
"*  c #3A3A2E",
"=  c #363831",
"-  c #3B3C31",
";  c #423E2E",
":  c #52492D",
">  c #444334",
",  c #494634",
"<  c #494736",
"1  c #4C4A39",
"2  c #524D37",
"3  c #56523C",
"4  c #5B553D",
"5  c #61532E",
"6  c #615634",
"7  c #665B3A",
"8  c #685E3D",
"9  c #6D603A",
"0  c #78693D",
"q  c #4F4E43",
"w  c #5C5741",
"e  c #5E5941",
"r  c #585548",
"t  c #645E45",
"y  c #695F40",
"u  c #625D4B",
"i  c #676047",
"p  c #6A6142",
"a  c #66614A",
"s  c #6A644A",
"d  c #6E684E",
"f  c #746B4B",
"g  c #6A6555",
"h  c #6E695A",
"j  c #736D53",
"k  c #726D5C",
"l  c #777054",
"z  c #7A7356",
"x  c #7C755B",
"c  c #79735C",
"v  c #6E6C63",
"b  c #797567",
"n  c #87794D",
"m  c #847853",
"M  c #837B5C",
"N  c #837D64",
"B  c #817C6A",
"V  c #98854E",
"C  c #8D8054",
"Z  c #8A815E",
"A  c #98895A",
"S  c #AA9251",
"D  c #A89459",
"F  c #B39D5B",
"G  c #BBA35A",
"H  c #8C8463",
"J  c #89826A",
"K  c #928964",
"L  c #938A66",
"P  c #948C6B",
"I  c #988F6A",
"U  c #9D9166",
"Y  c #9C936D",
"T  c #8B8676",
"R  c #938D74",
"E  c #928D7B",
"W  c #9B9274",
"Q  c #9A9377",
"!  c #96917C",
"~  c #9B947C",
"^  c #A99A67",
"/  c #A1966E",
"(  c #A49A72",
")  c #A29874",
"_  c #A99E75",
"`  c #A49C7B",
"'  c #AFA06C",
"]  c #B8A567",
"[  c #ACA176",
"{  c #ADA37A",
"}  c #B3A574",
"|  c #B6A874",
" . c #B1A57A",
".. c #B5A97C",
"X. c #BAAE7D",
"o. c #BEB17D",
"O. c #CAA446",
"+. c #D3AF4C",
"@. c #CAAB57",
"#. c #D4B252",
"$. c #DBBA55",
"%. c #D6B55A",
"&. c #DABB5C",
"*. c #C4AC64",
"=. c #D1AF62",
"-. c #CBB46C",
";. c #D1B565",
":. c #DABD63",
">. c #D5BB6C",
",. c #DABE6A",
"<. c #C6B477",
"1. c #CAB674",
"2. c #CCBA7C",
"3. c #D4BC72",
"4. c #D5BE78",
"5. c #E1C05B",
"6. c #DEC164",
"7. c #DDC26D",
"8. c #DBC273",
"9. c #D5C17B",
"0. c #DDC57C",
"q. c #DEC87D",
"w. c #E0C264",
"e. c #E1C56C",
"r. c #E3C976",
"t. c #918E84",
"y. c #9B9685",
"u. c #A39C84",
"i. c #A39E8B",
"p. c #A09D92",
"a. c #AAA285",
"s. c #A8A28B",
"d. c #AAA48D",
"f. c #B6AC86",
"g. c #BEB282",
"h. c #BDB38E",
"j. c #ABA693",
"k. c #ABA799",
"l. c #B3AC94",
"z. c #B4AE9B",
"x. c #BEB592",
"c. c #BAB39C",
"v. c #ACAAA0",
"b. c #B1AEA3",
"n. c #BBB5A3",
"m. c #B8B5A9",
"M. c #BEBDB6",
"N. c #C2B583",
"B. c #C6B984",
"V. c #CABC85",
"C. c #C6BA8B",
"Z. c #CBBE88",
"A. c #D2BF80",
"S. c #C4BA94",
"D. c #C6BD98",
"F. c #C2BBA4",
"G. c #C2BDAB",
"H. c #C0BEB5",
"J. c #CEC087",
"K. c #CEC08B",
"L. c #D4C384",
"P. c #DBC783",
"I. c #DEC984",
"U. c #D3C48C",
"Y. c #D7C88D",
"T. c #DACA8D",
"R. c #CEC193",
"E. c #CDC29A",
"W. c #D3C692",
"Q. c #DDCD92",
"!. c #D7CA9A",
"~. c #D5C99D",
"^. c #DFD095",
"/. c #DFD19A",
"(. c #E2CC83",
"). c #E1CD8A",
"_. c #E6D086",
"`. c #E4D28E",
"'. c #E1CE94",
"]. c #E3D394",
"[. c #E2D39B",
"{. c #E8D69B",
"}. c #E8D99D",
"|. c #CAC2A6",
" X c #CBC5AA",
".X c #D5CBA4",
"XX c #D8CCA3",
"oX c #D3CBAB",
"OX c #DDD2A6",
"+X c #DDD3AB",
"@X c #CBC6B3",
"#X c #CBC7B6",
"$X c #C4C3BB",
"%X c #D3CCB4",
"&X c #D3CEBC",
"*X c #D8D1B8",
"=X c #E3D5A2",
"-X c #E6D8A5",
";X c #EADBA3",
":X c #E2D6A8",
">X c #E5D9AC",
",X c #EADDAB",
"<X c #E5DBB3",
"1X c #E8DDB4",
"2X c #E5DCBA",
"3X c #E9DEBA",
"4X c #EDE1B4",
"5X c #ECE2BB",
"6X c #F0E6BE",
"7X c #CFCDC6",
"8X c #DBD7C9",
"9X c #E6DEC4",
"0X c #EAE1C3",
"qX c #EBE5CC",
"wX c #F1E7C3",
"eX c #F2EACD",
"rX c #EBE6D4",
"tX c #E9E6DA",
"yX c #EEEADD",
"uX c #F3ECD3",
"iX c #F3EEDC",
"pX c #E5E5E3",
"aX c #EFEDE4",
"sX c #F1EFE7",
"dX c #F3F2ED",
"fX c #F3F3F3",
/* pixels */
"o o o o o o o o o o o o o o o o o X X     X o o o O o o X X X X o o o o o o o o o o o o o o o o o o ",
"o o o o o X o o o o o o o o o X   o + * * , 3 4 w 4 3 2 - - $ X o   X o o X o o o o o o o o o o o o ",
"o o o o o o o o o o o o o X   @ - 3 3 i s s s d d d s s s i 4 3 > = o o X o X X o o o o o X o o o o ",
"o o o o o o o o o o o o   @ > w i s d l z x M M Z x Z x z l l k g u r = o   o o X o o o o o o o o o ",
"o o o o o o o . o o   o > e i s l x Z H L L I I Y W ~ ~ ~ t.E T B b g g q $ X X o X o o o o o o X o ",
"o o o o X o X o X X $ 3 i d x J P W ~ a.s.s.j.z.b.b.b.b.k.k.s.y.! T B k d u - X   o X o o o o o o o ",
"o o o o o o o . X > e g c J ! y.s.k.z.b.m.M.$X$X$XH.m.n.c.z.l.s.a.Q P H x d p 1 o X o o o o o o o o ",
"o o o o X o . o 1 a h J T y.s.k.b.m.M.$X7X$X#X$X@X X|.|.c.x.l.f.{ { Y Y L x d i 3 #   o X o o o o o ",
"o o o . o X X 1 g v J E y.k.z.n.m.@X@X@X@X%XoXoX|.~.E.K.C.g.g.g.X.} [ ( Y L Z l i 3 @ X X X X X o o ",
"o X o o o X 1 g k J t.i.j.z.n.F. X XoXoXoX.X.X!.W.U.U.Z.K.K.K.N.o.| |  .[ Y I Z l i 3 + X X X X o o ",
"o o X o . * u j N W ` a.f.x.S.D.E.K.U.U.Y.L.P.Y.T.U.L.U.J.9.2.1.<.<.g.X...[ / Y Z l i 2 O X X X o o ",
"o o o   $ 4 s x L Y _  .X.o.<.2.1.3.-.9.7.7.7.6.6.7.7.7.7.7.9.L.K.K.J.g.....[ Y P Z d 7 , X X X o o ",
"X o o o 1 s z H Y _ [ X.N.<.1.1.3.7.>.6.6.6.6.w.w.e.e.8.q.).].T.T.U.K.J.C.g. .[ Y A z 8 4 & X X   o ",
"X o   * t j H U ( [ X.N.V.K.L.9.9.q.q.I.q.q._._.].].].].].].^.Q.^.T.Y.J.J.g.X.' D U V f 7 : X X o o ",
"o o o 3 s x L / [ ..g.B.K.Y.T.^.].].].{.].}.].].].}.].`.`.`.`.].].Q.Y.Y.J.2.o.G ^ D A n 0 4 & X o o ",
"o   - a l H Y (  .o.N.J.W.!./.[.}.].].].].].}.].`.r.(.}.4X,X,X;X`.^.^.T.L.-.*.] ] F V C 0 5 : X X o ",
"o X w h J P { f.h.S.E.OXOXOX}.].].].].}.^.T.q.8.q.=X1X1X>X>X,X;X].}._.8.7.3.2.*.] D D V 0 9 6 % X o ",
"  % a b T i.k.c.|.oX.X!.^.].`.`.`._._.q.,.:.).5X0X<X:X:X1X1X1X=X].].r.6.P.+XXX-.G ] D V V f 9 , X o ",
"  > h b t.d.z.c.E.E.U.T.Q.].].r.8.7.6.8.<X0XaXrX[.2XqXrXrXqX,X]._.7.7.-X:XT.W.2.@.F S S A M 9 4 o X ",
"o r h T y.d.h.x.g.K.U.^.`.`.4XuXuX<X4XyXfXsXaXrXqXyXrX<X<X=XP.P.&.6.e._.(.&.;.=.G S S D A H j 4 $ X ",
"o a v P W [ ..o.K.K.Y.^.}.}.5XiXaXdXfXfXsXsXaXyXaX9X:X'.;.@.%.%.#.%.&.5.7.%.#.@.@.G S D ^ K l 8 ,   ",
"# r j H Y [ ..g.J.K.T.-XuXuXuXiXaXaXaXaX0X2XrXqXyX1X'.3.>.3.e.,.:.#.+.#.$.#.7.9.2.*.F ' ) L z 8 *   ",
"* t l H ( [ ..g.R./.T.^.eX4X[.-X4XqXyXaX0XOX>XqXqX=X4.4.0.r.,.,.6.&.&.$.$.6.I.Y.L.*.G [ ( I z 8 , X ",
"- a z L Y { g.R.oX+X/.-XeX4X`.].^.^.<X0X<X+X4X5X3X;XT.).r.4.0.,.6.&.&.$.e.]./.+XW.<.] ' [ L n 8 4 X ",
"- s z L (  .x.|.oXOXOX4X,X[.].^.[.[.'.OX=X'.{.>X6X,X'._.r.8.).8.&.&.$.7.;Xe.[.tX8X*Xg...[ A n 7 5 + ",
"* s z L ( [ C.E.~.Y.Q.`.].`.^.^.'.[.'.'.=X:X=X{.;X;X'.).P.8.8.).&.&.7.[.}.6.^.yXpX&Xg.f._ A n 7 5 + ",
"* s z L (  .x.E.~.W.Q.].].].;X,X2X9X>X=X[.=X{.{.{.{.`.(.0.8.=.{.[.6.].].}.4XuXpXtX8X|.n.d.Y m 7 5 O ",
"- i z L / { h.D.~./.Q.^.].}.].,XqXtX9X<X:X:X=X).].].).(.8.8.8.,.[.8.7.r.4XuXyX2X*X&Xo...d.y.J p 4 O ",
"* t l H / { g.C.E.!.Q.`.`.`.].].'.'.[.OX=X'.>.P.).(.P.0.8.8.).%.7.8.$.e.].-XqXOXK.1.] ' a.~ b i > X ",
"+ 4 j Z Y _ ..g.R.!.^.Q.{.(.`.[.].[.[.'.OX'.=.4.P.P.0.0.8.,.[.[.q.6.7._.e.`.OXU.1.G G ^ a.Q x 9 & X ",
"X 4 d Z U _ ..o.V.W.Q.^.`.r.e.).].[././.OX=XA.=.=.8.7.7.7.:.'.9X(.&.6.q.6.&.T.9.*.G G ^ Q R f 5 ;   ",
"o , s x P ( [ X.N.2.-.P.I.e.r.r.I.'./.[.<X>X=X'.8.=.@.@.=.&.(.).&.5.e._.`.8.9.R.2.] F ^ Y L f 5 O X ",
"  - g z H W { x.D.R.2.>.T.5XeXwX`.`.].[.5X<X/.=X^.>.@.O.O.+.#.#.&.5.e.q.^.T.Y..X|.X.' ( W N s 3 o X ",
". # g v J R j.M.@X&X8X+X<XrXuXuX,X].].^.2X<X/.[.=X^.q.#.O.O.%.#.+.$.w.`.Q.Y.K.R.R.f.[ Y P l i *   o ",
"o o r v t.t.v.m.$X7X8XpXtXrXyXiXiXuX5X-X-X5X1X[.-X[.[.T.7.I.`.8.$.+.#.8.T.U.K.K.....` W H d 4 @ X X ",
"o   = h b t.p.b.M.$XE.%X8XtX0X0XeXeXwXeXeXqX0X-X[.{.].].,X}.].]._.q.O.O.K.9.| o...{ W P x s > X o o ",
"o o o r v T p.v.b.f.o.g.K.XXT.T.Q.].`.}.,X6XqX6X,X-X;X}.{.,X,X].^.^.L.-.@.] ] ] _ [ L Z d e $ X o X ",
"X o   = g b t.p.v.f.f.g.V.K.K.T.Q.Q.^.`.`.{.;X5XwX6X,X1X;X(.[.[.Q.Y.Y.K.<.G F ^ D U Z z i > X X o o ",
"o o o o q v b t.j.v.b.|.@X XR.J.L.Y.Q.Q.].].'.,X0X4X>X-X,X^./.T.L.K.K.V.C.| S S A Z x s 4 X X X X o ",
"o X o   + r v b ! p.l.n.H.#X#X~.U.L.L.L.I.Q.'.'.-X1X=X/.^.+X2XK.3.-.<.o.| ^ D A Z n d e = X X X o o ",
"o o X o   % u h b R u.j.n.n. X#X%X%XoX~.4.>.0.4.T.T.L./.XXXX.X~.J.o.| ' ' ' U Z n f p > X o o o o o ",
"o o o X o   = a h J R u.s.z.n.n.G.@X%X*X%X.XZ.Z.Z.Z.9.2.V.V.B.N.o.o...{ [ Y L Z f 8 1 o X X X o o o ",
"o o o X o o . - u h b R y.s.z.z.n.F.G.G.G.oX@XoXoXoXF.D.C.N.g.X... .{ [ I H x j i 1 o o o X o o o o ",
"o o o o o o o   - e h b T ! u.j.l.z.c.S.F.F.F.F.F.D.S.S.x.f...[ [ [ W I H x d t , o o o X X o o o o ",
"o o o o o . o o   % w a k B T Q u.i.d.j.l.x.l.x.l.x.l.f.a.a.{ ` W P L N l s e > o X o X o o o o X o ",
"o o o o o o o o o   @ 1 t s l N J R ` u.u.u.i.i.u.a.i.u.` ` W P J H j d a 4 % X X o X o o o o o o o ",
"o o o o o o o o o o X o = 3 t s j b N B R R R Q W R W R P J N x l d a w - o   o o X o o o o o o o o ",
"o o o o o o o o o o X X   X - 3 t p d j l z c M N N M M z j d s i 3 > @ X X o o X o X o o o o o o o ",
"o o o o o o o o o o . o o .   o % > 3 w t i i a a s t a t e 3 1 = + X X X X X X o o o X o o o o o o ",
"X o o o o o o o o o o o X o o X   o o $ * * , 1 1 1 1 ; * = O X X X X X X X X X o X o o o o o o o o "
};
